<svg xmlns="http://www.w3.org/2000/svg" xmlns:xlink="http://www.w3.org/1999/xlink" width="1196.0687866210938" height="537" viewBox="0 0 1196.0687866210938 537" fill="none">
<path   fill="rgba(69, 30, 24, 0.80)"  d="M66.9999 398.499L979 398.499L979 399.499L66.9999 399.499L66.9999 398.499Z">
</path>
<path   fill="rgba(69, 30, 24, 0.80)"  d="M66.9999 302L979 302L979 302.999L66.9999 302.999L66.9999 302Z">
</path>
<path   fill="rgba(69, 30, 24, 0.80)"  d="M66.9999 205.498L979 205.498L979 206.501L66.9999 206.501L66.9999 205.498Z">
</path>
<path   fill="rgba(69, 30, 24, 0.80)"  d="M66.9999 109L979 109L979 109.999L66.9999 109.999L66.9999 109Z">
</path>
<path   fill="rgba(69, 30, 24, 0.80)"  d="M66.9999 12.5002L979 12.5002L979 13.4998L66.9999 13.4998L66.9999 12.5002Z">
</path>
<path d="M87.0582 441.326L185.981 437.66L284.905 452.715L383.828 419.051L482.751 410.391L581.673 436.172L680.596 426.009L779.52 301.105L878.443 327.07L977.366 382.13L977.366 494.703L878.443 494.703L779.52 494.703L680.596 494.703L581.673 494.703L482.751 494.703L383.828 494.703L284.905 494.703L185.981 494.703L87.0582 494.703L87.0582 441.326Z"   fill="#CD7A5E" fill-opacity="0.34">
</path>
<path d="M87.0582 320.915L185.981 322.245L284.905 304.133L383.828 295.11L482.751 303.083L581.673 325.613L680.596 327.007L779.52 287.753L878.443 297.046L977.366 269.555L977.366 382.129L878.443 327.07L779.52 301.105L680.596 426.009L581.673 436.171L482.751 410.391L383.828 419.051L284.905 452.714L185.981 437.66L87.0582 441.325L87.0582 320.915Z"   fill="#452E18" fill-opacity="0.34">
</path>
<path d="M87.0582 11.8186L185.981 11.8186L284.905 11.8186L383.828 11.8186L482.751 11.8186L581.673 11.8186L680.596 11.8186L779.52 11.8186L878.443 11.8186L977.366 11.8186L977.366 140.687L977.366 269.556L878.443 297.046L779.52 287.753L680.596 327.007L581.673 325.613L482.751 303.083L383.828 295.111L284.905 304.133L185.981 322.245L87.0582 320.915L87.0582 11.8186Z"   fill="#792F23" fill-opacity="0.2">
</path>
<path    stroke="rgba(205, 122, 94, 0.56)" stroke-width="2"    d="M87.0582 441.326L185.981 437.66L284.905 452.715L383.828 419.051L482.751 410.391L581.673 436.172L680.596 426.009L779.52 301.105L878.443 327.07L977.366 382.13">
</path>
<path    stroke="rgba(69, 46, 24, 0.56)" stroke-width="2"    d="M87.0582 320.915L185.981 322.245L284.905 304.133L383.828 295.11L482.751 303.083L581.673 325.613L680.596 327.007L779.52 287.753L878.443 297.046L977.366 269.555">
</path>
<path    stroke="rgba(121, 47, 35, 0.33)" stroke-width="2"    d="M87.0582 11.8186L185.981 11.8186L284.905 11.8186L383.828 11.8186L482.751 11.8186L581.673 11.8186L680.596 11.8186L779.52 11.8186L878.443 11.8186L977.366 11.8186">
</path>
<ellipse transform="matrix(1.0014711618423462, 0, 0, 1.0004416704177856, 87.05816650390625, 441.3265075683594)" cx="0.000751495361328125" cy="0.0007476806640625" rx="0.000751495361328125" ry="0.0007476806640625" stroke="rgba(205, 122, 94, 0.56)" stroke-width="2"      fill="#CD7A5E" fill-opacity="0.56">
</ellipse>
<ellipse transform="matrix(0.9964136481285095, 0, 0, 1.0004416704177856, 185.98147583007812, 437.6602478027344)" cx="0.00075531005859375" cy="0.0007476806640625" rx="0.00075531005859375" ry="0.0007476806640625" stroke="rgba(205, 122, 94, 0.56)" stroke-width="2"      fill="#CD7A5E" fill-opacity="0.56">
</ellipse>
<circle transform="matrix(1.0065821409225464, 0, 0, 1.0004416704177856, 284.90484619140625, 452.71466064453125)" cx="0.0007476806640625" cy="0.0007476806640625" r="0.0007476806640625" stroke="rgba(205, 122, 94, 0.56)" stroke-width="2"      fill="#CD7A5E" fill-opacity="0.56">
</circle>
<circle transform="matrix(1.0065823793411255, 0, 0, 1.0004416704177856, 383.82794189453125, 419.052490234375)" cx="0.0007476806640625" cy="0.0007476806640625" r="0.0007476806640625" stroke="rgba(205, 122, 94, 0.56)" stroke-width="2"      fill="#CD7A5E" fill-opacity="0.56">
</circle>
<ellipse transform="matrix(0.9864505529403687, 0, 0, 1.0004416704177856, 482.75067138671875, 410.39129638671875)" cx="0.000762939453125" cy="0.0007476806640625" rx="0.000762939453125" ry="0.0007476806640625" stroke="rgba(205, 122, 94, 0.56)" stroke-width="2"      fill="#CD7A5E" fill-opacity="0.56">
</ellipse>
<ellipse transform="matrix(0.9864505529403687, 0, 0, 1.0004416704177856, 581.6744384765625, 436.17315673828125)" cx="0.000762939453125" cy="0.0007476806640625" rx="0.000762939453125" ry="0.0007476806640625" stroke="rgba(205, 122, 94, 0.56)" stroke-width="2"      fill="#CD7A5E" fill-opacity="0.56">
</ellipse>
<ellipse transform="matrix(0.9864505529403687, 0, 0, 1.0004416704177856, 680.5972290039062, 426.00946044921875)" cx="0.000762939453125" cy="0.0007476806640625" rx="0.000762939453125" ry="0.0007476806640625" stroke="rgba(205, 122, 94, 0.56)" stroke-width="2"      fill="#CD7A5E" fill-opacity="0.56">
</ellipse>
<ellipse transform="matrix(0.9864505529403687, 0, 0, 1.0004417896270752, 779.5209350585938, 301.1051940917969)" cx="0.000762939453125" cy="0.0007476806640625" rx="0.000762939453125" ry="0.0007476806640625" stroke="rgba(205, 122, 94, 0.56)" stroke-width="2"      fill="#CD7A5E" fill-opacity="0.56">
</ellipse>
<ellipse transform="matrix(0.9864506721496582, 0, 0, 1.0004416704177856, 878.4444580078125, 327.07073974609375)" cx="0.000762939453125" cy="0.0007476806640625" rx="0.000762939453125" ry="0.0007476806640625" stroke="rgba(205, 122, 94, 0.56)" stroke-width="2"      fill="#CD7A5E" fill-opacity="0.56">
</ellipse>
<ellipse transform="matrix(0.9864504337310791, 0, 0, 1.0004416704177856, 977.367431640625, 382.12994384765625)" cx="0.000762939453125" cy="0.0007476806640625" rx="0.000762939453125" ry="0.0007476806640625" stroke="rgba(205, 122, 94, 0.56)" stroke-width="2"      fill="#CD7A5E" fill-opacity="0.56">
</ellipse>
<ellipse transform="matrix(1.0014711618423462, 0, 0, 1.0004416704177856, 87.05816650390625, 320.9153747558594)" cx="0.000751495361328125" cy="0.0007476806640625" rx="0.000751495361328125" ry="0.0007476806640625" stroke="rgba(69, 46, 24, 0.56)" stroke-width="2"      fill="#452E18" fill-opacity="0.56">
</ellipse>
<ellipse transform="matrix(0.9964136481285095, 0, 0, 1.0004416704177856, 185.98147583007812, 322.2454528808594)" cx="0.00075531005859375" cy="0.0007476806640625" rx="0.00075531005859375" ry="0.0007476806640625" stroke="rgba(69, 46, 24, 0.56)" stroke-width="2"      fill="#452E18" fill-opacity="0.56">
</ellipse>
<circle transform="matrix(1.0065821409225464, 0, 0, 1.0004417896270752, 284.90484619140625, 304.13427734375)" cx="0.0007476806640625" cy="0.0007476806640625" r="0.0007476806640625" stroke="rgba(69, 46, 24, 0.56)" stroke-width="2"      fill="#452E18" fill-opacity="0.56">
</circle>
<circle transform="matrix(1.0065823793411255, 0, 0, 1.0004417896270752, 383.82794189453125, 295.1117858886719)" cx="0.0007476806640625" cy="0.0007476806640625" r="0.0007476806640625" stroke="rgba(69, 46, 24, 0.56)" stroke-width="2"      fill="#452E18" fill-opacity="0.56">
</circle>
<ellipse transform="matrix(0.9864505529403687, 0, 0, 1.0004417896270752, 482.75067138671875, 303.0832824707031)" cx="0.000762939453125" cy="0.0007476806640625" rx="0.000762939453125" ry="0.0007476806640625" stroke="rgba(69, 46, 24, 0.56)" stroke-width="2"      fill="#452E18" fill-opacity="0.56">
</ellipse>
<ellipse transform="matrix(0.9864505529403687, 0, 0, 1.0004416704177856, 581.6744384765625, 325.6134338378906)" cx="0.000762939453125" cy="0.0007476806640625" rx="0.000762939453125" ry="0.0007476806640625" stroke="rgba(69, 46, 24, 0.56)" stroke-width="2"      fill="#452E18" fill-opacity="0.56">
</ellipse>
<ellipse transform="matrix(0.9864505529403687, 0, 0, 1.0004416704177856, 680.5972290039062, 327.00787353515625)" cx="0.000762939453125" cy="0.0007476806640625" rx="0.000762939453125" ry="0.0007476806640625" stroke="rgba(69, 46, 24, 0.56)" stroke-width="2"      fill="#452E18" fill-opacity="0.56">
</ellipse>
<ellipse transform="matrix(0.9864505529403687, 0, 0, 1.0004416704177856, 779.5209350585938, 287.75347900390625)" cx="0.000762939453125" cy="0.0007476806640625" rx="0.000762939453125" ry="0.0007476806640625" stroke="rgba(69, 46, 24, 0.56)" stroke-width="2"      fill="#452E18" fill-opacity="0.56">
</ellipse>
<ellipse transform="matrix(0.9864506721496582, 0, 0, 1.0004417896270752, 878.4444580078125, 297.0466613769531)" cx="0.000762939453125" cy="0.0007476806640625" rx="0.000762939453125" ry="0.0007476806640625" stroke="rgba(69, 46, 24, 0.56)" stroke-width="2"      fill="#452E18" fill-opacity="0.56">
</ellipse>
<ellipse transform="matrix(0.9864504337310791, 0, 0, 1.000441551208496, 977.367431640625, 269.5552978515625)" cx="0.000762939453125" cy="0.0007476806640625" rx="0.000762939453125" ry="0.0007476806640625" stroke="rgba(69, 46, 24, 0.56)" stroke-width="2"      fill="#452E18" fill-opacity="0.56">
</ellipse>
<ellipse transform="matrix(1.0014711618423462, 0, 0, 1.0004408359527588, 87.05816650390625, 11.818557739257812)" cx="0.000751495361328125" cy="0.0007476806640625" rx="0.000751495361328125" ry="0.0007476806640625" stroke="rgba(121, 47, 35, 0.33)" stroke-width="2"      fill="#792F23" fill-opacity="0.33">
</ellipse>
<ellipse transform="matrix(0.9964136481285095, 0, 0, 1.0004408359527588, 185.98147583007812, 11.818557739257812)" cx="0.00075531005859375" cy="0.0007476806640625" rx="0.00075531005859375" ry="0.0007476806640625" stroke="rgba(121, 47, 35, 0.33)" stroke-width="2"      fill="#792F23" fill-opacity="0.33">
</ellipse>
<circle transform="matrix(1.0065821409225464, 0, 0, 1.0004408359527588, 284.90484619140625, 11.818557739257812)" cx="0.0007476806640625" cy="0.0007476806640625" r="0.0007476806640625" stroke="rgba(121, 47, 35, 0.33)" stroke-width="2"      fill="#792F23" fill-opacity="0.33">
</circle>
<circle transform="matrix(1.0065823793411255, 0, 0, 1.0004408359527588, 383.82794189453125, 11.818557739257812)" cx="0.0007476806640625" cy="0.0007476806640625" r="0.0007476806640625" stroke="rgba(121, 47, 35, 0.33)" stroke-width="2"      fill="#792F23" fill-opacity="0.33">
</circle>
<ellipse transform="matrix(0.9864505529403687, 0, 0, 1.0004408359527588, 482.75067138671875, 11.818557739257812)" cx="0.000762939453125" cy="0.0007476806640625" rx="0.000762939453125" ry="0.0007476806640625" stroke="rgba(121, 47, 35, 0.33)" stroke-width="2"      fill="#792F23" fill-opacity="0.33">
</ellipse>
<ellipse transform="matrix(0.9864505529403687, 0, 0, 1.0004408359527588, 581.6744384765625, 11.818557739257812)" cx="0.000762939453125" cy="0.0007476806640625" rx="0.000762939453125" ry="0.0007476806640625" stroke="rgba(121, 47, 35, 0.33)" stroke-width="2"      fill="#792F23" fill-opacity="0.33">
</ellipse>
<ellipse transform="matrix(0.9864505529403687, 0, 0, 1.0004408359527588, 680.5972290039062, 11.818557739257812)" cx="0.000762939453125" cy="0.0007476806640625" rx="0.000762939453125" ry="0.0007476806640625" stroke="rgba(121, 47, 35, 0.33)" stroke-width="2"      fill="#792F23" fill-opacity="0.33">
</ellipse>
<ellipse transform="matrix(0.9864505529403687, 0, 0, 1.0004408359527588, 779.5209350585938, 11.818557739257812)" cx="0.000762939453125" cy="0.0007476806640625" rx="0.000762939453125" ry="0.0007476806640625" stroke="rgba(121, 47, 35, 0.33)" stroke-width="2"      fill="#792F23" fill-opacity="0.33">
</ellipse>
<ellipse transform="matrix(0.9864506721496582, 0, 0, 1.0004408359527588, 878.4444580078125, 11.818557739257812)" cx="0.000762939453125" cy="0.0007476806640625" rx="0.000762939453125" ry="0.0007476806640625" stroke="rgba(121, 47, 35, 0.33)" stroke-width="2"      fill="#792F23" fill-opacity="0.33">
</ellipse>
<ellipse transform="matrix(0.9864504337310791, 0, 0, 1.0004408359527588, 977.367431640625, 11.818557739257812)" cx="0.000762939453125" cy="0.0007476806640625" rx="0.000762939453125" ry="0.0007476806640625" stroke="rgba(121, 47, 35, 0.33)" stroke-width="2"      fill="#792F23" fill-opacity="0.33">
</ellipse>
<path     fill="#000000"  d="M977.367 11.8186L977.367 494.703">
</path>
<path   fill="rgba(255, 246, 237, 1)"  d="M977.861 11.8186L977.861 494.703L976.874 494.703L976.874 11.8186L977.861 11.8186Z">
</path>
<ellipse transform="matrix(0.9864504337310791, 0, 0, 1.0004416704177856, 977.367431640625, 382.12994384765625)" cx="0.000762939453125" cy="0.0007476806640625" rx="0.000762939453125" ry="0.0007476806640625" stroke="rgba(205, 122, 94, 0.56)" stroke-width="2"      fill="#CD7A5E" fill-opacity="0.56">
</ellipse>
<ellipse transform="matrix(0.9864504337310791, 0, 0, 1.000441551208496, 977.367431640625, 269.5552978515625)" cx="0.000762939453125" cy="0.0007476806640625" rx="0.000762939453125" ry="0.0007476806640625" stroke="rgba(69, 46, 24, 0.56)" stroke-width="2"      fill="#452E18" fill-opacity="0.56">
</ellipse>
<ellipse transform="matrix(0.9864504337310791, 0, 0, 1.0004408359527588, 977.367431640625, 11.818557739257812)" cx="0.000762939453125" cy="0.0007476806640625" rx="0.000762939453125" ry="0.0007476806640625" stroke="rgba(121, 47, 35, 0.33)" stroke-width="2"      fill="#792F23" fill-opacity="0.33">
</ellipse>
<g opacity="0">
<g opacity="0">
<rect x="17.81182861328125" y="11.818557739257812" width="98.92308044433594" height="482.88554763793945"   fill="#000000" >
</rect>
</g>
<g opacity="0">
<rect x="116.735107421875" y="11.818557739257812" width="98.92314147949219" height="482.88554763793945"   fill="#000000" >
</rect>
</g>
<g opacity="0">
<rect x="215.6583251953125" y="11.818557739257812" width="98.92314147949219" height="482.88554763793945"   fill="#000000" >
</rect>
</g>
<g opacity="0">
<rect x="314.58148193359375" y="11.818557739257812" width="98.92312622070312" height="482.88554763793945"   fill="#000000" >
</rect>
</g>
<g opacity="0">
<rect x="413.5047302246094" y="11.818557739257812" width="98.92312622070312" height="482.88554763793945"   fill="#000000" >
</rect>
</g>
<g opacity="0">
<rect x="512.4276733398438" y="11.818557739257812" width="98.923095703125" height="482.88554763793945"   fill="#000000" >
</rect>
</g>
<g opacity="0">
<rect x="611.3517456054688" y="11.818557739257812" width="98.92315673828125" height="482.88554763793945"   fill="#000000" >
</rect>
</g>
<g opacity="0">
<rect x="710.2748413085938" y="11.818557739257812" width="98.923095703125" height="482.88554763793945"   fill="#000000" >
</rect>
</g>
<g opacity="0">
<rect x="809.197998046875" y="11.818557739257812" width="98.9229736328125" height="482.88554763793945"   fill="#000000" >
</rect>
</g>
<g opacity="0">
<rect x="908.1207885742188" y="11.818557739257812" width="98.9232177734375" height="482.88554763793945"   fill="#000000" >
</rect>
</g>
</g>
<path    stroke="rgba(77, 77, 77, 1.00)" stroke-width="1"    d="M66.9999 493L977 493">
</path>
<g >
<path     fill="#333333"  d="M72.1342 522.913L78.5882 522.913L78.5882 521.807L75.7462 521.807C75.2282 521.807 74.5982 521.863 74.0662 521.905C76.4742 519.623 78.0982 517.537 78.0982 515.479C78.0982 513.659 76.9362 512.469 75.1022 512.469C73.8002 512.469 72.9042 513.057 72.0782 513.967L72.8202 514.695C73.3942 514.009 74.1082 513.505 74.9482 513.505C76.2222 513.505 76.8382 514.359 76.8382 515.535C76.8382 517.299 75.3542 519.343 72.1342 522.157L72.1342 522.913ZM83.1802 523.095C85.1262 523.095 86.3722 521.331 86.3722 517.747C86.3722 514.191 85.1262 512.469 83.1802 512.469C81.2202 512.469 79.9882 514.191 79.9882 517.747C79.9882 521.331 81.2202 523.095 83.1802 523.095ZM83.1802 522.059C82.0182 522.059 81.2202 520.757 81.2202 517.747C81.2202 514.751 82.0182 513.477 83.1802 513.477C84.3422 513.477 85.1402 514.751 85.1402 517.747C85.1402 520.757 84.3422 522.059 83.1802 522.059ZM88.2902 522.913L93.9182 522.913L93.9182 521.849L91.8602 521.849L91.8602 512.651L90.8802 512.651C90.3202 512.973 89.6622 513.211 88.7522 513.379L88.7522 514.191L90.5862 514.191L90.5862 521.849L88.2902 521.849L88.2902 522.913ZM98.5102 523.095C100.344 523.095 101.814 522.003 101.814 520.169C101.814 518.755 100.848 517.859 99.6442 517.565L99.6442 517.495C100.736 517.117 101.464 516.277 101.464 515.031C101.464 513.407 100.204 512.469 98.4682 512.469C97.2922 512.469 96.3822 512.987 95.6122 513.687L96.2982 514.499C96.8862 513.911 97.6002 513.505 98.4262 513.505C99.5042 513.505 100.162 514.149 100.162 515.129C100.162 516.235 99.4482 517.089 97.3202 517.089L97.3202 518.069C99.7002 518.069 100.512 518.881 100.512 520.127C100.512 521.303 99.6582 522.031 98.4262 522.031C97.2642 522.031 96.4942 521.471 95.8922 520.855L95.2342 521.681C95.9062 522.423 96.9142 523.095 98.5102 523.095Z">
</path>
</g>
<g >
<path     fill="#333333"  d="M171.057 522.913L177.511 522.913L177.511 521.807L174.669 521.807C174.151 521.807 173.521 521.863 172.989 521.905C175.397 519.623 177.021 517.537 177.021 515.479C177.021 513.659 175.859 512.469 174.025 512.469C172.723 512.469 171.827 513.057 171.001 513.967L171.743 514.695C172.317 514.009 173.031 513.505 173.871 513.505C175.145 513.505 175.761 514.359 175.761 515.535C175.761 517.299 174.277 519.343 171.057 522.157L171.057 522.913ZM182.103 523.095C184.049 523.095 185.295 521.331 185.295 517.747C185.295 514.191 184.049 512.469 182.103 512.469C180.143 512.469 178.911 514.191 178.911 517.747C178.911 521.331 180.143 523.095 182.103 523.095ZM182.103 522.059C180.941 522.059 180.143 520.757 180.143 517.747C180.143 514.751 180.941 513.477 182.103 513.477C183.265 513.477 184.063 514.751 184.063 517.747C184.063 520.757 183.265 522.059 182.103 522.059ZM187.213 522.913L192.841 522.913L192.841 521.849L190.783 521.849L190.783 512.651L189.803 512.651C189.243 512.973 188.585 513.211 187.675 513.379L187.675 514.191L189.509 514.191L189.509 521.849L187.213 521.849L187.213 522.913ZM198.511 522.913L199.715 522.913L199.715 520.085L201.087 520.085L201.087 519.063L199.715 519.063L199.715 512.651L198.301 512.651L194.031 519.245L194.031 520.085L198.511 520.085L198.511 522.913ZM198.511 519.063L195.361 519.063L197.699 515.563C197.993 515.059 198.273 514.541 198.525 514.051L198.581 514.051C198.553 514.569 198.511 515.409 198.511 515.913L198.511 519.063Z">
</path>
</g>
<g >
<path     fill="#333333"  d="M269.981 522.913L276.435 522.913L276.435 521.807L273.593 521.807C273.075 521.807 272.445 521.863 271.913 521.905C274.321 519.623 275.945 517.537 275.945 515.479C275.945 513.659 274.783 512.469 272.949 512.469C271.647 512.469 270.751 513.057 269.925 513.967L270.667 514.695C271.241 514.009 271.955 513.505 272.795 513.505C274.069 513.505 274.685 514.359 274.685 515.535C274.685 517.299 273.201 519.343 269.981 522.157L269.981 522.913ZM281.027 523.095C282.973 523.095 284.219 521.331 284.219 517.747C284.219 514.191 282.973 512.469 281.027 512.469C279.067 512.469 277.835 514.191 277.835 517.747C277.835 521.331 279.067 523.095 281.027 523.095ZM281.027 522.059C279.865 522.059 279.067 520.757 279.067 517.747C279.067 514.751 279.865 513.477 281.027 513.477C282.189 513.477 282.987 514.751 282.987 517.747C282.987 520.757 282.189 522.059 281.027 522.059ZM286.137 522.913L291.765 522.913L291.765 521.849L289.707 521.849L289.707 512.651L288.727 512.651C288.167 512.973 287.509 513.211 286.599 513.379L286.599 514.191L288.433 514.191L288.433 521.849L286.137 521.849L286.137 522.913ZM296.343 523.095C298.065 523.095 299.703 521.821 299.703 519.581C299.703 517.313 298.303 516.305 296.609 516.305C295.993 516.305 295.531 516.459 295.069 516.711L295.335 513.743L299.199 513.743L299.199 512.651L294.215 512.651L293.879 517.439L294.565 517.873C295.153 517.481 295.587 517.271 296.273 517.271C297.561 517.271 298.401 518.139 298.401 519.609C298.401 521.107 297.435 522.031 296.217 522.031C295.027 522.031 294.271 521.485 293.697 520.897L293.053 521.737C293.753 522.423 294.733 523.095 296.343 523.095Z">
</path>
</g>
<g >
<path     fill="#333333"  d="M368.904 522.913L375.358 522.913L375.358 521.807L372.516 521.807C371.998 521.807 371.368 521.863 370.836 521.905C373.244 519.623 374.868 517.537 374.868 515.479C374.868 513.659 373.706 512.469 371.872 512.469C370.57 512.469 369.674 513.057 368.848 513.967L369.59 514.695C370.164 514.009 370.878 513.505 371.718 513.505C372.992 513.505 373.608 514.359 373.608 515.535C373.608 517.299 372.124 519.343 368.904 522.157L368.904 522.913ZM379.95 523.095C381.896 523.095 383.142 521.331 383.142 517.747C383.142 514.191 381.896 512.469 379.95 512.469C377.99 512.469 376.758 514.191 376.758 517.747C376.758 521.331 377.99 523.095 379.95 523.095ZM379.95 522.059C378.788 522.059 377.99 520.757 377.99 517.747C377.99 514.751 378.788 513.477 379.95 513.477C381.112 513.477 381.91 514.751 381.91 517.747C381.91 520.757 381.112 522.059 379.95 522.059ZM385.06 522.913L390.688 522.913L390.688 521.849L388.63 521.849L388.63 512.651L387.65 512.651C387.09 512.973 386.432 513.211 385.522 513.379L385.522 514.191L387.356 514.191L387.356 521.849L385.06 521.849L385.06 522.913ZM395.812 523.095C397.408 523.095 398.766 521.751 398.766 519.763C398.766 517.607 397.646 516.543 395.91 516.543C395.112 516.543 394.216 517.005 393.586 517.775C393.642 514.597 394.804 513.519 396.232 513.519C396.848 513.519 397.464 513.827 397.856 514.303L398.584 513.519C398.01 512.903 397.24 512.469 396.176 512.469C394.188 512.469 392.382 513.995 392.382 518.013C392.382 521.401 393.852 523.095 395.812 523.095ZM393.614 518.797C394.286 517.845 395.07 517.495 395.7 517.495C396.946 517.495 397.548 518.377 397.548 519.763C397.548 521.163 396.792 522.087 395.812 522.087C394.524 522.087 393.754 520.925 393.614 518.797Z">
</path>
</g>
<g >
<path     fill="#333333"  d="M467.827 522.913L474.281 522.913L474.281 521.807L471.439 521.807C470.921 521.807 470.291 521.863 469.759 521.905C472.167 519.623 473.791 517.537 473.791 515.479C473.791 513.659 472.629 512.469 470.795 512.469C469.493 512.469 468.597 513.057 467.771 513.967L468.513 514.695C469.087 514.009 469.801 513.505 470.641 513.505C471.915 513.505 472.531 514.359 472.531 515.535C472.531 517.299 471.047 519.343 467.827 522.157L467.827 522.913ZM478.873 523.095C480.819 523.095 482.065 521.331 482.065 517.747C482.065 514.191 480.819 512.469 478.873 512.469C476.913 512.469 475.681 514.191 475.681 517.747C475.681 521.331 476.913 523.095 478.873 523.095ZM478.873 522.059C477.711 522.059 476.913 520.757 476.913 517.747C476.913 514.751 477.711 513.477 478.873 513.477C480.035 513.477 480.833 514.751 480.833 517.747C480.833 520.757 480.035 522.059 478.873 522.059ZM483.983 522.913L489.611 522.913L489.611 521.849L487.553 521.849L487.553 512.651L486.573 512.651C486.013 512.973 485.355 513.211 484.445 513.379L484.445 514.191L486.279 514.191L486.279 521.849L483.983 521.849L483.983 522.913ZM493.293 522.913L494.623 522.913C494.791 518.895 495.225 516.501 497.633 513.421L497.633 512.651L491.207 512.651L491.207 513.743L496.191 513.743C494.175 516.543 493.475 519.021 493.293 522.913Z">
</path>
</g>
<g >
<path     fill="#333333"  d="M566.75 522.913L573.204 522.913L573.204 521.807L570.362 521.807C569.844 521.807 569.214 521.863 568.682 521.905C571.09 519.623 572.714 517.537 572.714 515.479C572.714 513.659 571.552 512.469 569.718 512.469C568.416 512.469 567.52 513.057 566.694 513.967L567.436 514.695C568.01 514.009 568.724 513.505 569.564 513.505C570.838 513.505 571.454 514.359 571.454 515.535C571.454 517.299 569.97 519.343 566.75 522.157L566.75 522.913ZM577.796 523.095C579.742 523.095 580.988 521.331 580.988 517.747C580.988 514.191 579.742 512.469 577.796 512.469C575.836 512.469 574.604 514.191 574.604 517.747C574.604 521.331 575.836 523.095 577.796 523.095ZM577.796 522.059C576.634 522.059 575.836 520.757 575.836 517.747C575.836 514.751 576.634 513.477 577.796 513.477C578.958 513.477 579.756 514.751 579.756 517.747C579.756 520.757 578.958 522.059 577.796 522.059ZM582.906 522.913L588.534 522.913L588.534 521.849L586.476 521.849L586.476 512.651L585.496 512.651C584.936 512.973 584.278 513.211 583.368 513.379L583.368 514.191L585.202 514.191L585.202 521.849L582.906 521.849L582.906 522.913ZM593.364 523.095C595.282 523.095 596.57 521.933 596.57 520.449C596.57 519.035 595.744 518.265 594.848 517.747L594.848 517.677C595.45 517.201 596.206 516.277 596.206 515.199C596.206 513.617 595.142 512.497 593.392 512.497C591.796 512.497 590.578 513.547 590.578 515.101C590.578 516.179 591.222 516.949 591.964 517.467L591.964 517.523C591.026 518.027 590.088 518.993 590.088 520.365C590.088 521.947 591.46 523.095 593.364 523.095ZM594.064 517.341C592.846 516.865 591.74 516.319 591.74 515.101C591.74 514.107 592.426 513.449 593.378 513.449C594.47 513.449 595.114 514.247 595.114 515.269C595.114 516.025 594.75 516.725 594.064 517.341ZM593.378 522.143C592.146 522.143 591.222 521.345 591.222 520.253C591.222 519.273 591.81 518.461 592.636 517.929C594.092 518.517 595.352 519.021 595.352 520.407C595.352 521.429 594.568 522.143 593.378 522.143Z">
</path>
</g>
<g >
<path     fill="#333333"  d="M665.674 522.913L672.128 522.913L672.128 521.807L669.286 521.807C668.768 521.807 668.138 521.863 667.606 521.905C670.014 519.623 671.638 517.537 671.638 515.479C671.638 513.659 670.476 512.469 668.642 512.469C667.34 512.469 666.444 513.057 665.618 513.967L666.36 514.695C666.934 514.009 667.648 513.505 668.488 513.505C669.762 513.505 670.378 514.359 670.378 515.535C670.378 517.299 668.894 519.343 665.674 522.157L665.674 522.913ZM676.72 523.095C678.666 523.095 679.912 521.331 679.912 517.747C679.912 514.191 678.666 512.469 676.72 512.469C674.76 512.469 673.528 514.191 673.528 517.747C673.528 521.331 674.76 523.095 676.72 523.095ZM676.72 522.059C675.558 522.059 674.76 520.757 674.76 517.747C674.76 514.751 675.558 513.477 676.72 513.477C677.882 513.477 678.68 514.751 678.68 517.747C678.68 520.757 677.882 522.059 676.72 522.059ZM681.83 522.913L687.458 522.913L687.458 521.849L685.4 521.849L685.4 512.651L684.42 512.651C683.86 512.973 683.202 513.211 682.292 513.379L682.292 514.191L684.126 514.191L684.126 521.849L681.83 521.849L681.83 522.913ZM691.658 523.095C693.576 523.095 695.382 521.499 695.382 517.341C695.382 514.079 693.898 512.469 691.924 512.469C690.328 512.469 688.984 513.799 688.984 515.801C688.984 517.915 690.104 519.021 691.812 519.021C692.666 519.021 693.548 518.531 694.178 517.775C694.08 520.953 692.932 522.031 691.616 522.031C690.944 522.031 690.328 521.737 689.88 521.247L689.18 522.045C689.754 522.647 690.538 523.095 691.658 523.095ZM694.164 516.697C693.478 517.677 692.708 518.069 692.022 518.069C690.804 518.069 690.188 517.173 690.188 515.801C690.188 514.387 690.944 513.463 691.938 513.463C693.24 513.463 694.024 514.583 694.164 516.697Z">
</path>
</g>
<g >
<path     fill="#333333"  d="M764.597 522.913L771.051 522.913L771.051 521.807L768.209 521.807C767.691 521.807 767.061 521.863 766.529 521.905C768.937 519.623 770.561 517.537 770.561 515.479C770.561 513.659 769.399 512.469 767.565 512.469C766.263 512.469 765.367 513.057 764.541 513.967L765.283 514.695C765.857 514.009 766.571 513.505 767.411 513.505C768.685 513.505 769.301 514.359 769.301 515.535C769.301 517.299 767.817 519.343 764.597 522.157L764.597 522.913ZM775.643 523.095C777.589 523.095 778.835 521.331 778.835 517.747C778.835 514.191 777.589 512.469 775.643 512.469C773.683 512.469 772.451 514.191 772.451 517.747C772.451 521.331 773.683 523.095 775.643 523.095ZM775.643 522.059C774.481 522.059 773.683 520.757 773.683 517.747C773.683 514.751 774.481 513.477 775.643 513.477C776.805 513.477 777.603 514.751 777.603 517.747C777.603 520.757 776.805 522.059 775.643 522.059ZM780.137 522.913L786.591 522.913L786.591 521.807L783.749 521.807C783.231 521.807 782.601 521.863 782.069 521.905C784.477 519.623 786.101 517.537 786.101 515.479C786.101 513.659 784.939 512.469 783.105 512.469C781.803 512.469 780.907 513.057 780.081 513.967L780.823 514.695C781.397 514.009 782.111 513.505 782.951 513.505C784.225 513.505 784.841 514.359 784.841 515.535C784.841 517.299 783.357 519.343 780.137 522.157L780.137 522.913ZM791.183 523.095C793.129 523.095 794.375 521.331 794.375 517.747C794.375 514.191 793.129 512.469 791.183 512.469C789.223 512.469 787.991 514.191 787.991 517.747C787.991 521.331 789.223 523.095 791.183 523.095ZM791.183 522.059C790.021 522.059 789.223 520.757 789.223 517.747C789.223 514.751 790.021 513.477 791.183 513.477C792.345 513.477 793.143 514.751 793.143 517.747C793.143 520.757 792.345 522.059 791.183 522.059Z">
</path>
</g>
<g >
<path     fill="#333333"  d="M863.52 522.913L869.974 522.913L869.974 521.807L867.132 521.807C866.614 521.807 865.984 521.863 865.452 521.905C867.86 519.623 869.484 517.537 869.484 515.479C869.484 513.659 868.322 512.469 866.488 512.469C865.186 512.469 864.29 513.057 863.464 513.967L864.206 514.695C864.78 514.009 865.494 513.505 866.334 513.505C867.608 513.505 868.224 514.359 868.224 515.535C868.224 517.299 866.74 519.343 863.52 522.157L863.52 522.913ZM874.566 523.095C876.512 523.095 877.758 521.331 877.758 517.747C877.758 514.191 876.512 512.469 874.566 512.469C872.606 512.469 871.374 514.191 871.374 517.747C871.374 521.331 872.606 523.095 874.566 523.095ZM874.566 522.059C873.404 522.059 872.606 520.757 872.606 517.747C872.606 514.751 873.404 513.477 874.566 513.477C875.728 513.477 876.526 514.751 876.526 517.747C876.526 520.757 875.728 522.059 874.566 522.059ZM879.06 522.913L885.514 522.913L885.514 521.807L882.672 521.807C882.154 521.807 881.524 521.863 880.992 521.905C883.4 519.623 885.024 517.537 885.024 515.479C885.024 513.659 883.862 512.469 882.028 512.469C880.726 512.469 879.83 513.057 879.004 513.967L879.746 514.695C880.32 514.009 881.034 513.505 881.874 513.505C883.148 513.505 883.764 514.359 883.764 515.535C883.764 517.299 882.28 519.343 879.06 522.157L879.06 522.913ZM887.446 522.913L893.074 522.913L893.074 521.849L891.016 521.849L891.016 512.651L890.036 512.651C889.476 512.973 888.818 513.211 887.908 513.379L887.908 514.191L889.742 514.191L889.742 521.849L887.446 521.849L887.446 522.913Z">
</path>
</g>
<g >
<path     fill="#333333"  d="M962.443 522.913L968.897 522.913L968.897 521.807L966.055 521.807C965.537 521.807 964.907 521.863 964.375 521.905C966.783 519.623 968.407 517.537 968.407 515.479C968.407 513.659 967.245 512.469 965.411 512.469C964.109 512.469 963.213 513.057 962.387 513.967L963.129 514.695C963.703 514.009 964.417 513.505 965.257 513.505C966.531 513.505 967.147 514.359 967.147 515.535C967.147 517.299 965.663 519.343 962.443 522.157L962.443 522.913ZM973.489 523.095C975.435 523.095 976.681 521.331 976.681 517.747C976.681 514.191 975.435 512.469 973.489 512.469C971.529 512.469 970.297 514.191 970.297 517.747C970.297 521.331 971.529 523.095 973.489 523.095ZM973.489 522.059C972.327 522.059 971.529 520.757 971.529 517.747C971.529 514.751 972.327 513.477 973.489 513.477C974.651 513.477 975.449 514.751 975.449 517.747C975.449 520.757 974.651 522.059 973.489 522.059ZM977.983 522.913L984.437 522.913L984.437 521.807L981.595 521.807C981.077 521.807 980.447 521.863 979.915 521.905C982.323 519.623 983.947 517.537 983.947 515.479C983.947 513.659 982.785 512.469 980.951 512.469C979.649 512.469 978.753 513.057 977.927 513.967L978.669 514.695C979.243 514.009 979.957 513.505 980.797 513.505C982.071 513.505 982.687 514.359 982.687 515.535C982.687 517.299 981.203 519.343 977.983 522.157L977.983 522.913ZM985.753 522.913L992.207 522.913L992.207 521.807L989.365 521.807C988.847 521.807 988.217 521.863 987.685 521.905C990.093 519.623 991.717 517.537 991.717 515.479C991.717 513.659 990.555 512.469 988.721 512.469C987.419 512.469 986.523 513.057 985.697 513.967L986.439 514.695C987.013 514.009 987.727 513.505 988.567 513.505C989.841 513.505 990.457 514.359 990.457 515.535C990.457 517.299 988.973 519.343 985.753 522.157L985.753 522.913Z">
</path>
</g>
<g >
<path     fill="#333333"  d="M37.7223 499.308C39.6683 499.308 40.9143 497.544 40.9143 493.96C40.9143 490.404 39.6683 488.682 37.7223 488.682C35.7623 488.682 34.5303 490.404 34.5303 493.96C34.5303 497.544 35.7623 499.308 37.7223 499.308ZM37.7223 498.272C36.5603 498.272 35.7623 496.97 35.7623 493.96C35.7623 490.964 36.5603 489.69 37.7223 489.69C38.8843 489.69 39.6823 490.964 39.6823 493.96C39.6823 496.97 38.8843 498.272 37.7223 498.272ZM44.4703 495.15C45.8843 495.15 46.8083 493.96 46.8083 491.888C46.8083 489.844 45.8843 488.682 44.4703 488.682C43.0703 488.682 42.1463 489.844 42.1463 491.888C42.1463 493.96 43.0703 495.15 44.4703 495.15ZM44.4703 494.366C43.6583 494.366 43.1123 493.526 43.1123 491.888C43.1123 490.25 43.6583 489.466 44.4703 489.466C45.2823 489.466 45.8283 490.25 45.8283 491.888C45.8283 493.526 45.2823 494.366 44.4703 494.366ZM44.7643 499.308L45.6323 499.308L51.3023 488.682L50.4343 488.682L44.7643 499.308ZM51.6243 499.308C53.0243 499.308 53.9483 498.132 53.9483 496.06C53.9483 494.002 53.0243 492.84 51.6243 492.84C50.2243 492.84 49.3003 494.002 49.3003 496.06C49.3003 498.132 50.2243 499.308 51.6243 499.308ZM51.6243 498.524C50.8123 498.524 50.2523 497.698 50.2523 496.06C50.2523 494.422 50.8123 493.624 51.6243 493.624C52.4223 493.624 52.9963 494.422 52.9963 496.06C52.9963 497.698 52.4223 498.524 51.6243 498.524Z">
</path>
</g>
<g >
<path     fill="#333333"  d="M26.6763 402.549L33.1303 402.549L33.1303 401.443L30.2883 401.443C29.7703 401.443 29.1403 401.499 28.6083 401.541C31.0163 399.259 32.6403 397.173 32.6403 395.115C32.6403 393.295 31.4783 392.105 29.6443 392.105C28.3423 392.105 27.4463 392.693 26.6203 393.603L27.3623 394.331C27.9363 393.645 28.6503 393.141 29.4903 393.141C30.7643 393.141 31.3803 393.995 31.3803 395.171C31.3803 396.935 29.8963 398.979 26.6763 401.793L26.6763 402.549ZM37.7223 402.731C39.6683 402.731 40.9143 400.967 40.9143 397.383C40.9143 393.827 39.6683 392.105 37.7223 392.105C35.7623 392.105 34.5303 393.827 34.5303 397.383C34.5303 400.967 35.7623 402.731 37.7223 402.731ZM37.7223 401.695C36.5603 401.695 35.7623 400.393 35.7623 397.383C35.7623 394.387 36.5603 393.113 37.7223 393.113C38.8843 393.113 39.6823 394.387 39.6823 397.383C39.6823 400.393 38.8843 401.695 37.7223 401.695ZM44.4703 398.573C45.8843 398.573 46.8083 397.383 46.8083 395.311C46.8083 393.267 45.8843 392.105 44.4703 392.105C43.0703 392.105 42.1463 393.267 42.1463 395.311C42.1463 397.383 43.0703 398.573 44.4703 398.573ZM44.4703 397.789C43.6583 397.789 43.1123 396.949 43.1123 395.311C43.1123 393.673 43.6583 392.889 44.4703 392.889C45.2823 392.889 45.8283 393.673 45.8283 395.311C45.8283 396.949 45.2823 397.789 44.4703 397.789ZM44.7643 402.731L45.6323 402.731L51.3023 392.105L50.4343 392.105L44.7643 402.731ZM51.6243 402.731C53.0243 402.731 53.9483 401.555 53.9483 399.483C53.9483 397.425 53.0243 396.263 51.6243 396.263C50.2243 396.263 49.3003 397.425 49.3003 399.483C49.3003 401.555 50.2243 402.731 51.6243 402.731ZM51.6243 401.947C50.8123 401.947 50.2523 401.121 50.2523 399.483C50.2523 397.845 50.8123 397.047 51.6243 397.047C52.4223 397.047 52.9963 397.845 52.9963 399.483C52.9963 401.121 52.4223 401.947 51.6243 401.947Z">
</path>
</g>
<g >
<path     fill="#333333"  d="M30.8203 305.972L32.0243 305.972L32.0243 303.144L33.3963 303.144L33.3963 302.122L32.0243 302.122L32.0243 295.71L30.6103 295.71L26.3403 302.304L26.3403 303.144L30.8203 303.144L30.8203 305.972ZM30.8203 302.122L27.6703 302.122L30.0083 298.622C30.3023 298.118 30.5823 297.6 30.8343 297.11L30.8903 297.11C30.8623 297.628 30.8203 298.468 30.8203 298.972L30.8203 302.122ZM37.7223 306.154C39.6683 306.154 40.9143 304.39 40.9143 300.806C40.9143 297.25 39.6683 295.528 37.7223 295.528C35.7623 295.528 34.5303 297.25 34.5303 300.806C34.5303 304.39 35.7623 306.154 37.7223 306.154ZM37.7223 305.118C36.5603 305.118 35.7623 303.816 35.7623 300.806C35.7623 297.81 36.5603 296.536 37.7223 296.536C38.8843 296.536 39.6823 297.81 39.6823 300.806C39.6823 303.816 38.8843 305.118 37.7223 305.118ZM44.4703 301.996C45.8843 301.996 46.8083 300.806 46.8083 298.734C46.8083 296.69 45.8843 295.528 44.4703 295.528C43.0703 295.528 42.1463 296.69 42.1463 298.734C42.1463 300.806 43.0703 301.996 44.4703 301.996ZM44.4703 301.212C43.6583 301.212 43.1123 300.372 43.1123 298.734C43.1123 297.096 43.6583 296.312 44.4703 296.312C45.2823 296.312 45.8283 297.096 45.8283 298.734C45.8283 300.372 45.2823 301.212 44.4703 301.212ZM44.7643 306.154L45.6323 306.154L51.3023 295.528L50.4343 295.528L44.7643 306.154ZM51.6243 306.154C53.0243 306.154 53.9483 304.978 53.9483 302.906C53.9483 300.848 53.0243 299.686 51.6243 299.686C50.2243 299.686 49.3003 300.848 49.3003 302.906C49.3003 304.978 50.2243 306.154 51.6243 306.154ZM51.6243 305.37C50.8123 305.37 50.2523 304.544 50.2523 302.906C50.2523 301.268 50.8123 300.47 51.6243 300.47C52.4223 300.47 52.9963 301.268 52.9963 302.906C52.9963 304.544 52.4223 305.37 51.6243 305.37Z">
</path>
</g>
<g >
<path     fill="#333333"  d="M30.2743 209.576C31.8703 209.576 33.2283 208.232 33.2283 206.244C33.2283 204.088 32.1083 203.024 30.3723 203.024C29.5743 203.024 28.6783 203.486 28.0483 204.256C28.1043 201.078 29.2663 200 30.6943 200C31.3103 200 31.9263 200.308 32.3183 200.784L33.0463 200C32.4723 199.384 31.7023 198.95 30.6383 198.95C28.6503 198.95 26.8443 200.476 26.8443 204.494C26.8443 207.882 28.3143 209.576 30.2743 209.576ZM28.0763 205.278C28.7483 204.326 29.5323 203.976 30.1623 203.976C31.4083 203.976 32.0103 204.858 32.0103 206.244C32.0103 207.644 31.2543 208.568 30.2743 208.568C28.9863 208.568 28.2163 207.406 28.0763 205.278ZM37.7223 209.576C39.6683 209.576 40.9143 207.812 40.9143 204.228C40.9143 200.672 39.6683 198.95 37.7223 198.95C35.7623 198.95 34.5303 200.672 34.5303 204.228C34.5303 207.812 35.7623 209.576 37.7223 209.576ZM37.7223 208.54C36.5603 208.54 35.7623 207.238 35.7623 204.228C35.7623 201.232 36.5603 199.958 37.7223 199.958C38.8843 199.958 39.6823 201.232 39.6823 204.228C39.6823 207.238 38.8843 208.54 37.7223 208.54ZM44.4703 205.418C45.8843 205.418 46.8083 204.228 46.8083 202.156C46.8083 200.112 45.8843 198.95 44.4703 198.95C43.0703 198.95 42.1463 200.112 42.1463 202.156C42.1463 204.228 43.0703 205.418 44.4703 205.418ZM44.4703 204.634C43.6583 204.634 43.1123 203.794 43.1123 202.156C43.1123 200.518 43.6583 199.734 44.4703 199.734C45.2823 199.734 45.8283 200.518 45.8283 202.156C45.8283 203.794 45.2823 204.634 44.4703 204.634ZM44.7643 209.576L45.6323 209.576L51.3023 198.95L50.4343 198.95L44.7643 209.576ZM51.6243 209.576C53.0243 209.576 53.9483 208.4 53.9483 206.328C53.9483 204.27 53.0243 203.108 51.6243 203.108C50.2243 203.108 49.3003 204.27 49.3003 206.328C49.3003 208.4 50.2243 209.576 51.6243 209.576ZM51.6243 208.792C50.8123 208.792 50.2523 207.966 50.2523 206.328C50.2523 204.69 50.8123 203.892 51.6243 203.892C52.4223 203.892 52.9963 204.69 52.9963 206.328C52.9963 207.966 52.4223 208.792 51.6243 208.792Z">
</path>
</g>
<g >
<path     fill="#333333"  d="M29.9803 112.999C31.8983 112.999 33.1863 111.837 33.1863 110.353C33.1863 108.939 32.3603 108.169 31.4643 107.651L31.4643 107.581C32.0663 107.105 32.8223 106.181 32.8223 105.103C32.8223 103.521 31.7583 102.401 30.0083 102.401C28.4123 102.401 27.1943 103.451 27.1943 105.005C27.1943 106.083 27.8383 106.853 28.5803 107.371L28.5803 107.427C27.6423 107.931 26.7043 108.897 26.7043 110.269C26.7043 111.851 28.0763 112.999 29.9803 112.999ZM30.6803 107.245C29.4623 106.769 28.3563 106.223 28.3563 105.005C28.3563 104.011 29.0423 103.353 29.9943 103.353C31.0863 103.353 31.7303 104.151 31.7303 105.173C31.7303 105.929 31.3663 106.629 30.6803 107.245ZM29.9943 112.047C28.7623 112.047 27.8383 111.249 27.8383 110.157C27.8383 109.177 28.4263 108.365 29.2523 107.833C30.7083 108.421 31.9683 108.925 31.9683 110.311C31.9683 111.333 31.1843 112.047 29.9943 112.047ZM37.7223 112.999C39.6683 112.999 40.9143 111.235 40.9143 107.651C40.9143 104.095 39.6683 102.373 37.7223 102.373C35.7623 102.373 34.5303 104.095 34.5303 107.651C34.5303 111.235 35.7623 112.999 37.7223 112.999ZM37.7223 111.963C36.5603 111.963 35.7623 110.661 35.7623 107.651C35.7623 104.655 36.5603 103.381 37.7223 103.381C38.8843 103.381 39.6823 104.655 39.6823 107.651C39.6823 110.661 38.8843 111.963 37.7223 111.963ZM44.4703 108.841C45.8843 108.841 46.8083 107.651 46.8083 105.579C46.8083 103.535 45.8843 102.373 44.4703 102.373C43.0703 102.373 42.1463 103.535 42.1463 105.579C42.1463 107.651 43.0703 108.841 44.4703 108.841ZM44.4703 108.057C43.6583 108.057 43.1123 107.217 43.1123 105.579C43.1123 103.941 43.6583 103.157 44.4703 103.157C45.2823 103.157 45.8283 103.941 45.8283 105.579C45.8283 107.217 45.2823 108.057 44.4703 108.057ZM44.7643 112.999L45.6323 112.999L51.3023 102.373L50.4343 102.373L44.7643 112.999ZM51.6243 112.999C53.0243 112.999 53.9483 111.823 53.9483 109.751C53.9483 107.693 53.0243 106.531 51.6243 106.531C50.2243 106.531 49.3003 107.693 49.3003 109.751C49.3003 111.823 50.2243 112.999 51.6243 112.999ZM51.6243 112.215C50.8123 112.215 50.2523 111.389 50.2523 109.751C50.2523 108.113 50.8123 107.315 51.6243 107.315C52.4223 107.315 52.9963 108.113 52.9963 109.751C52.9963 111.389 52.4223 112.215 51.6243 112.215Z">
</path>
</g>
<g >
<path     fill="#333333"  d="M19.5223 16.24L25.1503 16.24L25.1503 15.176L23.0923 15.176L23.0923 5.978L22.1123 5.978C21.5523 6.3 20.8943 6.538 19.9843 6.706L19.9843 7.518L21.8183 7.518L21.8183 15.176L19.5223 15.176L19.5223 16.24ZM29.9523 16.422C31.8983 16.422 33.1443 14.658 33.1443 11.074C33.1443 7.518 31.8983 5.796 29.9523 5.796C27.9923 5.796 26.7603 7.518 26.7603 11.074C26.7603 14.658 27.9923 16.422 29.9523 16.422ZM29.9523 15.386C28.7903 15.386 27.9923 14.084 27.9923 11.074C27.9923 8.078 28.7903 6.804 29.9523 6.804C31.1143 6.804 31.9123 8.078 31.9123 11.074C31.9123 14.084 31.1143 15.386 29.9523 15.386ZM37.7223 16.422C39.6683 16.422 40.9143 14.658 40.9143 11.074C40.9143 7.518 39.6683 5.796 37.7223 5.796C35.7623 5.796 34.5303 7.518 34.5303 11.074C34.5303 14.658 35.7623 16.422 37.7223 16.422ZM37.7223 15.386C36.5603 15.386 35.7623 14.084 35.7623 11.074C35.7623 8.078 36.5603 6.804 37.7223 6.804C38.8843 6.804 39.6823 8.078 39.6823 11.074C39.6823 14.084 38.8843 15.386 37.7223 15.386ZM44.4703 12.264C45.8843 12.264 46.8083 11.074 46.8083 9.002C46.8083 6.958 45.8843 5.796 44.4703 5.796C43.0703 5.796 42.1463 6.958 42.1463 9.002C42.1463 11.074 43.0703 12.264 44.4703 12.264ZM44.4703 11.48C43.6583 11.48 43.1123 10.64 43.1123 9.002C43.1123 7.364 43.6583 6.58 44.4703 6.58C45.2823 6.58 45.8283 7.364 45.8283 9.002C45.8283 10.64 45.2823 11.48 44.4703 11.48ZM44.7643 16.422L45.6323 16.422L51.3023 5.796L50.4343 5.796L44.7643 16.422ZM51.6243 16.422C53.0243 16.422 53.9483 15.246 53.9483 13.174C53.9483 11.116 53.0243 9.954 51.6243 9.954C50.2243 9.954 49.3003 11.116 49.3003 13.174C49.3003 15.246 50.2243 16.422 51.6243 16.422ZM51.6243 15.638C50.8123 15.638 50.2523 14.812 50.2523 13.174C50.2523 11.536 50.8123 10.738 51.6243 10.738C52.4223 10.738 52.9963 11.536 52.9963 13.174C52.9963 14.812 52.4223 15.638 51.6243 15.638Z">
</path>
</g>
<ellipse cx="1079.3027954101562" cy="360.8773498535156" rx="10.3028564453125" ry="9.149993896484375"   fill="#CD7A5E" fill-opacity="0.56">
</ellipse>
<g >
<path     fill="#333333"  d="M1102.54 356.1L1102.54 362.708L1100.64 362.708L1100.64 363.73L1113.21 363.73L1113.21 362.708L1107.82 362.708L1107.82 358.298L1112.2 358.298L1112.2 357.276L1107.82 357.276L1107.82 353.538L1112.75 353.538L1112.75 352.502L1101.17 352.502L1101.17 353.538L1106.71 353.538L1106.71 362.708L1103.62 362.708L1103.62 356.1L1102.54 356.1ZM1119.35 358.564L1122.32 358.564L1122.32 360.146L1119.35 360.146L1119.35 358.564ZM1119.35 357.71L1119.35 356.156L1122.32 356.156L1122.32 357.71L1119.35 357.71ZM1119.35 361L1122.32 361L1122.32 362.638L1119.35 362.638L1119.35 361ZM1114.72 352.404L1114.72 353.412L1120.12 353.412C1120.03 353.986 1119.87 354.644 1119.73 355.176L1115.36 355.176L1115.36 364.36L1116.37 364.36L1116.37 363.618L1125.39 363.618L1125.39 364.36L1126.45 364.36L1126.45 355.176L1120.81 355.176L1121.36 353.412L1127.14 353.412L1127.14 352.404L1114.72 352.404ZM1116.37 362.638L1116.37 356.156L1118.39 356.156L1118.39 362.638L1116.37 362.638ZM1125.39 362.638L1123.29 362.638L1123.29 356.156L1125.39 356.156L1125.39 362.638ZM1137.58 356.366L1137.58 359.278C1137.58 360.678 1137.25 362.666 1134.42 363.73C1134.63 363.898 1134.87 364.192 1134.98 364.388C1138.16 363.128 1138.44 361.014 1138.44 359.292L1138.44 356.366L1137.58 356.366ZM1138.13 362.204C1139.05 362.848 1140.19 363.758 1140.75 364.36L1141.35 363.618C1140.79 363.03 1139.63 362.148 1138.72 361.56L1138.13 362.204ZM1130.95 351.508C1130.32 353.664 1129.29 355.792 1128.15 357.206C1128.31 357.458 1128.58 358.032 1128.66 358.27C1129.11 357.724 1129.55 357.066 1129.95 356.352L1129.95 364.36L1130.9 364.36L1130.9 354.448C1131.28 353.58 1131.62 352.67 1131.9 351.774L1130.95 351.508ZM1132.28 362.078C1132.46 361.882 1132.79 361.644 1134.88 360.482C1134.85 360.272 1134.84 359.866 1134.85 359.586L1133.17 360.412L1133.17 356.576L1134.98 356.576L1134.98 355.666L1133.17 355.666L1133.17 353.034L1132.28 353.034L1132.28 360.258C1132.28 360.804 1132.04 361.042 1131.84 361.154C1132.01 361.392 1132.21 361.826 1132.28 362.078ZM1135.51 354.714L1135.51 361.238L1136.43 361.238L1136.43 355.638L1139.71 355.638L1139.71 361.21L1140.66 361.21L1140.66 354.714L1138.18 354.714C1138.37 354.294 1138.56 353.776 1138.76 353.272L1141.31 353.272L1141.31 352.348L1134.92 352.348L1134.92 353.272L1137.65 353.272C1137.53 353.734 1137.37 354.28 1137.22 354.714L1135.51 354.714ZM1148.04 351.452C1147.84 352.166 1147.49 353.146 1147.14 353.902L1143.29 353.902L1143.29 364.36L1144.33 364.36L1144.33 354.924L1153.56 354.924L1153.56 362.96C1153.56 363.212 1153.47 363.296 1153.19 363.296C1152.9 363.31 1151.93 363.324 1150.92 363.268C1151.08 363.576 1151.23 364.066 1151.29 364.36C1152.58 364.36 1153.44 364.346 1153.95 364.178C1154.44 363.996 1154.61 363.66 1154.61 362.96L1154.61 353.902L1148.31 353.902C1148.66 353.23 1149.03 352.418 1149.34 351.662L1148.04 351.452ZM1147.13 357.724L1150.67 357.724L1150.67 360.468L1147.13 360.468L1147.13 357.724ZM1146.16 356.786L1146.16 362.428L1147.13 362.428L1147.13 361.42L1151.65 361.42L1151.65 356.786L1146.16 356.786Z">
</path>
</g>
<ellipse cx="1079.3027648925781" cy="300.8773498535156" rx="10.302825927734375" ry="9.149993896484375"   fill="#452E18" fill-opacity="0.56">
</ellipse>
<g >
<path     fill="#333333"  d="M1107.23 301.952C1109.04 302.736 1110.88 303.674 1112 304.36L1112.8 303.632C1111.61 302.96 1109.67 302.022 1107.87 301.28L1107.23 301.952ZM1106.5 297.458C1106.26 300.93 1105.68 302.694 1100.78 303.464C1100.97 303.674 1101.22 304.08 1101.29 304.346C1106.5 303.436 1107.31 301.364 1107.59 297.458L1106.5 297.458ZM1104.68 293.622L1108.35 293.622C1108 294.252 1107.55 294.938 1107.1 295.498L1103.06 295.498C1103.66 294.896 1104.21 294.266 1104.68 293.622ZM1104.77 291.494C1104.04 292.964 1102.62 294.798 1100.66 296.128C1100.92 296.282 1101.27 296.618 1101.45 296.856C1101.88 296.534 1102.3 296.198 1102.68 295.848L1102.68 301.574L1103.73 301.574L1103.73 296.436L1110.35 296.436L1110.35 301.574L1111.44 301.574L1111.44 295.498L1108.29 295.498C1108.85 294.77 1109.41 293.902 1109.79 293.146L1109.09 292.684L1108.91 292.74L1105.3 292.74C1105.52 292.39 1105.73 292.04 1105.91 291.69L1104.77 291.494ZM1119.35 298.564L1122.32 298.564L1122.32 300.146L1119.35 300.146L1119.35 298.564ZM1119.35 297.71L1119.35 296.156L1122.32 296.156L1122.32 297.71L1119.35 297.71ZM1119.35 301L1122.32 301L1122.32 302.638L1119.35 302.638L1119.35 301ZM1114.72 292.404L1114.72 293.412L1120.12 293.412C1120.03 293.986 1119.87 294.644 1119.73 295.176L1115.36 295.176L1115.36 304.36L1116.37 304.36L1116.37 303.618L1125.39 303.618L1125.39 304.36L1126.45 304.36L1126.45 295.176L1120.81 295.176L1121.36 293.412L1127.14 293.412L1127.14 292.404L1114.72 292.404ZM1116.37 302.638L1116.37 296.156L1118.39 296.156L1118.39 302.638L1116.37 302.638ZM1125.39 302.638L1123.29 302.638L1123.29 296.156L1125.39 296.156L1125.39 302.638ZM1137.58 296.366L1137.58 299.278C1137.58 300.678 1137.25 302.666 1134.42 303.73C1134.63 303.898 1134.87 304.192 1134.98 304.388C1138.16 303.128 1138.44 301.014 1138.44 299.292L1138.44 296.366L1137.58 296.366ZM1138.13 302.204C1139.05 302.848 1140.19 303.758 1140.75 304.36L1141.35 303.618C1140.79 303.03 1139.63 302.148 1138.72 301.56L1138.13 302.204ZM1130.95 291.508C1130.32 293.664 1129.29 295.792 1128.15 297.206C1128.31 297.458 1128.58 298.032 1128.66 298.27C1129.11 297.724 1129.55 297.066 1129.95 296.352L1129.95 304.36L1130.9 304.36L1130.9 294.448C1131.28 293.58 1131.62 292.67 1131.9 291.774L1130.95 291.508ZM1132.28 302.078C1132.46 301.882 1132.79 301.644 1134.88 300.482C1134.85 300.272 1134.84 299.866 1134.85 299.586L1133.17 300.412L1133.17 296.576L1134.98 296.576L1134.98 295.666L1133.17 295.666L1133.17 293.034L1132.28 293.034L1132.28 300.258C1132.28 300.804 1132.04 301.042 1131.84 301.154C1132.01 301.392 1132.21 301.826 1132.28 302.078ZM1135.51 294.714L1135.51 301.238L1136.43 301.238L1136.43 295.638L1139.71 295.638L1139.71 301.21L1140.66 301.21L1140.66 294.714L1138.18 294.714C1138.37 294.294 1138.56 293.776 1138.76 293.272L1141.31 293.272L1141.31 292.348L1134.92 292.348L1134.92 293.272L1137.65 293.272C1137.53 293.734 1137.37 294.28 1137.22 294.714L1135.51 294.714ZM1148.04 291.452C1147.84 292.166 1147.49 293.146 1147.14 293.902L1143.29 293.902L1143.29 304.36L1144.33 304.36L1144.33 294.924L1153.56 294.924L1153.56 302.96C1153.56 303.212 1153.47 303.296 1153.19 303.296C1152.9 303.31 1151.93 303.324 1150.92 303.268C1151.08 303.576 1151.23 304.066 1151.29 304.36C1152.58 304.36 1153.44 304.346 1153.95 304.178C1154.44 303.996 1154.61 303.66 1154.61 302.96L1154.61 293.902L1148.31 293.902C1148.66 293.23 1149.03 292.418 1149.34 291.662L1148.04 291.452ZM1147.13 297.724L1150.67 297.724L1150.67 300.468L1147.13 300.468L1147.13 297.724ZM1146.16 296.786L1146.16 302.428L1147.13 302.428L1147.13 301.42L1151.65 301.42L1151.65 296.786L1146.16 296.786Z">
</path>
</g>
<ellipse cx="1079.3027954101562" cy="240.87734985351562" rx="10.3028564453125" ry="9.149993896484375"   fill="#792F23" fill-opacity="0.33">
</ellipse>
<g >
<path     fill="#333333"  d="M1100.52 237.206L1100.52 238.354L1113.35 238.354L1113.35 237.206L1100.52 237.206ZM1116.97 234.882C1117.34 235.47 1117.77 236.254 1117.95 236.772L1118.67 236.394C1118.47 235.89 1118.05 235.148 1117.66 234.56L1116.97 234.882ZM1117.02 239.432C1117.39 240.076 1117.81 240.944 1118 241.504L1118.72 241.126C1118.54 240.594 1118.12 239.754 1117.73 239.124L1117.02 239.432ZM1114.54 237.5L1114.54 238.424L1115.56 238.424C1115.49 240.216 1115.27 242.274 1114.5 243.856C1114.72 243.954 1115.13 244.22 1115.31 244.402C1116.16 242.708 1116.43 240.384 1116.5 238.424L1119.21 238.424L1119.21 243.03C1119.21 243.212 1119.16 243.268 1118.96 243.282C1118.77 243.282 1118.09 243.296 1117.44 243.268C1117.58 243.534 1117.7 243.968 1117.74 244.234C1118.65 244.234 1119.3 244.22 1119.68 244.052C1120.05 243.884 1120.18 243.604 1120.18 243.03L1120.18 232.852L1118.01 232.852L1118.54 231.606L1117.48 231.438C1117.39 231.844 1117.21 232.39 1117.04 232.852L1115.57 232.852L1115.57 237.052L1115.57 237.5L1114.54 237.5ZM1116.53 233.72L1119.21 233.72L1119.21 237.5L1116.53 237.5L1116.53 237.052L1116.53 233.72ZM1121.64 232.082L1121.64 233.762C1121.64 234.574 1121.51 235.512 1120.61 236.24C1120.82 236.366 1121.22 236.73 1121.38 236.926C1122.42 236.072 1122.63 234.812 1122.63 233.776L1122.63 233.006L1124.8 233.006L1124.8 235.064C1124.8 236.044 1125 236.422 1125.89 236.422C1126.06 236.422 1126.58 236.422 1126.76 236.422C1127 236.422 1127.26 236.408 1127.42 236.352C1127.39 236.114 1127.36 235.75 1127.33 235.498C1127.18 235.54 1126.9 235.568 1126.75 235.568C1126.61 235.568 1126.13 235.568 1125.98 235.568C1125.81 235.568 1125.78 235.456 1125.78 235.078L1125.78 232.082L1121.64 232.082ZM1125.58 238.396C1125.22 239.6 1124.67 240.566 1123.96 241.336C1123.15 240.524 1122.55 239.53 1122.15 238.396L1125.58 238.396ZM1120.94 237.458L1120.94 238.396L1121.57 238.396L1121.17 238.508C1121.65 239.894 1122.32 241.07 1123.22 242.022C1122.43 242.652 1121.5 243.114 1120.46 243.45C1120.66 243.632 1120.96 244.052 1121.08 244.29C1122.14 243.926 1123.11 243.408 1123.95 242.694C1124.72 243.324 1125.61 243.828 1126.63 244.164C1126.8 243.884 1127.1 243.492 1127.33 243.282C1126.33 243.002 1125.44 242.554 1124.69 241.966C1125.64 240.902 1126.37 239.502 1126.77 237.682L1126.16 237.43L1125.98 237.458L1120.94 237.458ZM1137.58 236.366L1137.58 239.278C1137.58 240.678 1137.25 242.666 1134.42 243.73C1134.63 243.898 1134.87 244.192 1134.98 244.388C1138.16 243.128 1138.44 241.014 1138.44 239.292L1138.44 236.366L1137.58 236.366ZM1138.13 242.204C1139.05 242.848 1140.19 243.758 1140.75 244.36L1141.35 243.618C1140.79 243.03 1139.63 242.148 1138.72 241.56L1138.13 242.204ZM1130.95 231.508C1130.32 233.664 1129.29 235.792 1128.15 237.206C1128.31 237.458 1128.58 238.032 1128.66 238.27C1129.11 237.724 1129.55 237.066 1129.95 236.352L1129.95 244.36L1130.9 244.36L1130.9 234.448C1131.28 233.58 1131.62 232.67 1131.9 231.774L1130.95 231.508ZM1132.28 242.078C1132.46 241.882 1132.79 241.644 1134.88 240.482C1134.85 240.272 1134.84 239.866 1134.85 239.586L1133.17 240.412L1133.17 236.576L1134.98 236.576L1134.98 235.666L1133.17 235.666L1133.17 233.034L1132.28 233.034L1132.28 240.258C1132.28 240.804 1132.04 241.042 1131.84 241.154C1132.01 241.392 1132.21 241.826 1132.28 242.078ZM1135.51 234.714L1135.51 241.238L1136.43 241.238L1136.43 235.638L1139.71 235.638L1139.71 241.21L1140.66 241.21L1140.66 234.714L1138.18 234.714C1138.37 234.294 1138.56 233.776 1138.76 233.272L1141.31 233.272L1141.31 232.348L1134.92 232.348L1134.92 233.272L1137.65 233.272C1137.53 233.734 1137.37 234.28 1137.22 234.714L1135.51 234.714ZM1148.04 231.452C1147.84 232.166 1147.49 233.146 1147.14 233.902L1143.29 233.902L1143.29 244.36L1144.33 244.36L1144.33 234.924L1153.56 234.924L1153.56 242.96C1153.56 243.212 1153.47 243.296 1153.19 243.296C1152.9 243.31 1151.93 243.324 1150.92 243.268C1151.08 243.576 1151.23 244.066 1151.29 244.36C1152.58 244.36 1153.44 244.346 1153.95 244.178C1154.44 243.996 1154.61 243.66 1154.61 242.96L1154.61 233.902L1148.31 233.902C1148.66 233.23 1149.03 232.418 1149.34 231.662L1148.04 231.452ZM1147.13 237.724L1150.67 237.724L1150.67 240.468L1147.13 240.468L1147.13 237.724ZM1146.16 236.786L1146.16 242.428L1147.13 242.428L1147.13 241.42L1151.65 241.42L1151.65 236.786L1146.16 236.786Z">
</path>
</g>
</svg>
