<?xml version="1.0" standalone="no"?>
<svg xmlns="http://www.w3.org/2000/svg" xmlns:xlink="http://www.w3.org/1999/xlink" version="1.1" class="symmetric-chart" width="800" height="300" style="background-color: transparent; font-size: 16px; font-family: &quot;思源黑体 细体&quot;; letter-spacing: 0px;"><defs/><g class="svg-group" opacity="1" transform="translate(21.36,22.9)"><g class="main-group" transform="translate(0,32.015625)"><g class="core-group"><g class="plane-grid preview-hidden" transform="translate(85.81999450683594,0)" style="opacity: 1;"><g class="" fill="none" stroke="rgba(102, 102, 102, 0.35)" style="stroke-width: 1; stroke-dasharray: none; pointer-events: none;"><line class="grid-y-line" y1="0" x1="111.99333424886068" y2="216.45237500000002" x2="111.99333424886068"/><line class="grid-y-line" y1="0" x1="223.98666849772135" y2="216.45237500000002" x2="223.98666849772135"/><line class="grid-y-line" y1="0" x1="335.98000274658204" y2="216.45237500000002" x2="335.98000274658204"/><line class="grid-y-line" y1="0" x1="447.9733369954427" y2="216.45237500000002" x2="447.9733369954427"/><line class="grid-y-line" y1="0" x1="559.9666712443035" y2="216.45237500000002" x2="559.9666712443035"/><line class="grid-y-line" y1="0" x1="671.9600054931641" y2="216.45237500000002" x2="671.9600054931641"/></g></g></g><g class="axis-x-line preview-hidden" transform="translate(85.31999450683594,216.45237500000002)" style="opacity: 1;"><g><g class="axis-group" fill="none" font-size="10" font-family="sans-serif" text-anchor="middle" style="font-size: 16px; font-family: &quot;思源黑体 细体&quot;;"><path class="domain" stroke="#4D4D4D" d="M0.5,0.5V0.5H672.4600054931641V0.5" style="stroke-width: 1; display: none;"/><g class="tick" opacity="1" transform="translate(0.5,0)"><line stroke="#4D4D4D" y2="5" style="stroke-width: 1; display: none;"/><g transform="translate(0,24)"/><g transform="translate(0,24)"/><g transform="translate(0,24)"/><g transform="translate(0,24)"/><g transform="translate(0,24)"/><g transform="translate(0,24)"/><g transform="translate(0,24)"/><g transform="translate(0,24)"/><g transform="translate(0,24)"/><g transform="translate(0,24)"/><g transform="translate(0,24)"/><g transform="translate(0,24)"/><g transform="translate(0,24)"/><g transform="translate(0,24)"/><g transform="translate(0,24)"/><g transform="translate(0,24)"/><g transform="translate(0,24)"/><g transform="translate(0,24)"/><g transform="translate(0,24)"/><g transform="translate(0,24)"/><g transform="translate(0,24)"/><g transform="translate(0,24)"/><g transform="translate(0,24)"/><g transform="translate(0,24)"/><g transform="translate(0,24)"/><g transform="translate(0,24)"/><g transform="translate(0,24)"><text opacity="1" fill="#333333" transform="translate(0,0) rotate(0)" style="text-anchor: middle; display: none; font-size: 16px; font-family: &quot;思源黑体 细体&quot;;">80%</text></g></g><g class="tick" opacity="1" transform="translate(112.49333190917969, 0)"><line stroke="#4D4D4D" y2="5" style="stroke-width: 1; display: none;"/><g transform="translate(0,24)"/><g transform="translate(0,24)"/><g transform="translate(0,24)"/><g transform="translate(0,24)"/><g transform="translate(0,24)"/><g transform="translate(0,24)"/><g transform="translate(0,24)"/><g transform="translate(0,24)"/><g transform="translate(0,24)"/><g transform="translate(0,24)"/><g transform="translate(0,24)"/><g transform="translate(0,24)"/><g transform="translate(0,24)"/><g transform="translate(0,24)"/><g transform="translate(0,24)"/><g transform="translate(0,24)"/><g transform="translate(0,24)"/><g transform="translate(0,24)"/><g transform="translate(0,24)"/><g transform="translate(0,24)"/><g transform="translate(0,24)"/><g transform="translate(0,24)"/><g transform="translate(0,24)"/><g transform="translate(0,24)"/><g transform="translate(0,24)"/><g transform="translate(0,24)"/><g transform="translate(0,24)"><text opacity="1" fill="#333333" transform="translate(0,0) rotate(0)" style="text-anchor: middle; display: none; font-size: 16px; font-family: &quot;思源黑体 细体&quot;;">60%</text></g></g><g class="tick" opacity="1" transform="translate(224.48666381835938, 0)"><line stroke="#4D4D4D" y2="5" style="stroke-width: 1; display: none;"/><g transform="translate(0,24)"/><g transform="translate(0,24)"/><g transform="translate(0,24)"/><g transform="translate(0,24)"/><g transform="translate(0,24)"/><g transform="translate(0,24)"/><g transform="translate(0,24)"/><g transform="translate(0,24)"/><g transform="translate(0,24)"/><g transform="translate(0,24)"/><g transform="translate(0,24)"/><g transform="translate(0,24)"/><g transform="translate(0,24)"/><g transform="translate(0,24)"/><g transform="translate(0,24)"/><g transform="translate(0,24)"/><g transform="translate(0,24)"/><g transform="translate(0,24)"/><g transform="translate(0,24)"/><g transform="translate(0,24)"/><g transform="translate(0,24)"/><g transform="translate(0,24)"/><g transform="translate(0,24)"/><g transform="translate(0,24)"/><g transform="translate(0,24)"/><g transform="translate(0,24)"/><g transform="translate(0,24)"><text opacity="1" fill="#333333" transform="translate(0,0) rotate(0)" style="text-anchor: middle; display: none; font-size: 16px; font-family: &quot;思源黑体 细体&quot;;">40%</text></g></g><g class="tick" opacity="1" transform="translate(336.4800109863281, 0)"><line stroke="#4D4D4D" y2="5" style="stroke-width: 1; display: none;"/><g transform="translate(0,24)"/><g transform="translate(0,24)"/><g transform="translate(0,24)"/><g transform="translate(0,24)"/><g transform="translate(0,24)"/><g transform="translate(0,24)"/><g transform="translate(0,24)"/><g transform="translate(0,24)"/><g transform="translate(0,24)"/><g transform="translate(0,24)"/><g transform="translate(0,24)"/><g transform="translate(0,24)"/><g transform="translate(0,24)"/><g transform="translate(0,24)"/><g transform="translate(0,24)"/><g transform="translate(0,24)"/><g transform="translate(0,24)"/><g transform="translate(0,24)"/><g transform="translate(0,24)"/><g transform="translate(0,24)"/><g transform="translate(0,24)"/><g transform="translate(0,24)"/><g transform="translate(0,24)"/><g transform="translate(0,24)"/><g transform="translate(0,24)"/><g transform="translate(0,24)"/><g transform="translate(0,24)"><text opacity="1" fill="#333333" transform="translate(0,0) rotate(0)" style="text-anchor: middle; display: none; font-size: 16px; font-family: &quot;思源黑体 细体&quot;;">20%</text></g></g><g class="tick" opacity="1" transform="translate(448.47332763671875, 0)"><line stroke="#4D4D4D" y2="5" style="stroke-width: 1; display: none;"/><g transform="translate(0,24)"/><g transform="translate(0,24)"/><g transform="translate(0,24)"/><g transform="translate(0,24)"/><g transform="translate(0,24)"/><g transform="translate(0,24)"/><g transform="translate(0,24)"/><g transform="translate(0,24)"/><g transform="translate(0,24)"/><g transform="translate(0,24)"/><g transform="translate(0,24)"/><g transform="translate(0,24)"/><g transform="translate(0,24)"/><g transform="translate(0,24)"/><g transform="translate(0,24)"/><g transform="translate(0,24)"/><g transform="translate(0,24)"/><g transform="translate(0,24)"/><g transform="translate(0,24)"/><g transform="translate(0,24)"/><g transform="translate(0,24)"/><g transform="translate(0,24)"/><g transform="translate(0,24)"/><g transform="translate(0,24)"/><g transform="translate(0,24)"/><g transform="translate(0,24)"/><g transform="translate(0,24)"><text opacity="1" fill="#333333" transform="translate(0,0) rotate(0)" style="text-anchor: middle; display: none; font-size: 16px; font-family: &quot;思源黑体 细体&quot;;">0%</text></g></g><g class="tick" opacity="1" transform="translate(560.4666748046875, 0)"><line stroke="#4D4D4D" y2="5" style="stroke-width: 1; display: none;"/><g transform="translate(0,24)"/><g transform="translate(0,24)"/><g transform="translate(0,24)"/><g transform="translate(0,24)"/><g transform="translate(0,24)"/><g transform="translate(0,24)"/><g transform="translate(0,24)"/><g transform="translate(0,24)"/><g transform="translate(0,24)"/><g transform="translate(0,24)"/><g transform="translate(0,24)"/><g transform="translate(0,24)"/><g transform="translate(0,24)"/><g transform="translate(0,24)"/><g transform="translate(0,24)"/><g transform="translate(0,24)"/><g transform="translate(0,24)"/><g transform="translate(0,24)"/><g transform="translate(0,24)"/><g transform="translate(0,24)"/><g transform="translate(0,24)"/><g transform="translate(0,24)"/><g transform="translate(0,24)"/><g transform="translate(0,24)"/><g transform="translate(0,24)"/><g transform="translate(0,24)"/><g transform="translate(0,24)"><text opacity="1" fill="#333333" transform="translate(0,0) rotate(0)" style="text-anchor: middle; display: none; font-size: 16px; font-family: &quot;思源黑体 细体&quot;;">20%</text></g></g><g class="tick" opacity="1" transform="translate(672.4600219726562, 0)"><line stroke="#4D4D4D" y2="5" style="stroke-width: 1; display: none;"/><g transform="translate(0,24)"/><g transform="translate(0,24)"/><g transform="translate(0,24)"/><g transform="translate(0,24)"/><g transform="translate(0,24)"/><g transform="translate(0,24)"/><g transform="translate(0,24)"/><g transform="translate(0,24)"/><g transform="translate(0,24)"/><g transform="translate(0,24)"/><g transform="translate(0,24)"/><g transform="translate(0,24)"/><g transform="translate(0,24)"/><g transform="translate(0,24)"/><g transform="translate(0,24)"/><g transform="translate(0,24)"/><g transform="translate(0,24)"/><g transform="translate(0,24)"/><g transform="translate(0,24)"/><g transform="translate(0,24)"/><g transform="translate(0,24)"/><g transform="translate(0,24)"/><g transform="translate(0,24)"/><g transform="translate(0,24)"/><g transform="translate(0,24)"/><g transform="translate(0,24)"/><g transform="translate(0,24)"><text opacity="1" fill="#333333" transform="translate(0,0) rotate(0)" style="text-anchor: middle; display: none; font-size: 16px; font-family: &quot;思源黑体 细体&quot;;">40%</text></g></g></g></g></g><g class="axis-y-line preview-hidden" transform="translate(85.31999450683594,0)" style="opacity: 1;"><g><g class="axis-group" fill="none" font-size="10" font-family="sans-serif" text-anchor="end"><path class="domain" stroke="#4D4D4D" d="M0,216.95237500000002H0.5V0.5H0" style="stroke-width: 1; display: none;"/><g class="tick" opacity="1" transform="translate(0,189.395828125)"><line stroke="#4D4D4D" x2="-5" style="stroke-width: 1; display: none;"/><text fill="#333333" x="-8.559999999999999" y="6.4" style="font-size: 16px; font-family: &quot;思源黑体 细体&quot;; display: block;">2021-2022</text></g><g class="tick" opacity="1" transform="translate(0,135.28273437500002)"><line stroke="#4D4D4D" x2="-5" style="stroke-width: 1; display: none;"/><text fill="#333333" x="-8.559999999999999" y="6.4" style="font-size: 16px; font-family: &quot;思源黑体 细体&quot;; display: block;">2019-2010</text></g><g class="tick" opacity="1" transform="translate(0,81.169640625)"><line stroke="#4D4D4D" x2="-5" style="stroke-width: 1; display: none;"/><text fill="#333333" x="-8.559999999999999" y="6.4" style="font-size: 16px; font-family: &quot;思源黑体 细体&quot;; display: block;">2017-2018</text></g><g class="tick" opacity="1" transform="translate(0,27.056546875000002)"><line stroke="#4D4D4D" x2="-5" style="stroke-width: 1; display: none;"/><text fill="#333333" x="-8.559999999999999" y="6.4" style="font-size: 16px; font-family: &quot;思源黑体 细体&quot;; display: block;">2015-2016</text></g></g></g></g><g class="core-group" transform="translate(85.81999450683594,0)"><g class="rect-plot" clip-path="url(#animation-overlay-tejntc1i15fjp4v)"><g style="transform: scale(1);"><g class="symmetric-rect"><rect fill="rgb(205,122,94)" stroke="rgba(205, 122, 94, 0.49)" x="28.334313564961764" y="13.257707968750001" width="215.69916176330568" height="27.597677812500002" style="fill-opacity: 0.3773; stroke-width: 0px;"/></g><g class="symmetric-rect"><rect fill="rgb(205,122,94)" stroke="rgba(205, 122, 94, 0.49)" x="34.32595694727577" y="67.37080171875" width="204.27584166992187" height="27.597677812500002" style="fill-opacity: 0.3773; stroke-width: 0px;"/></g><g class="symmetric-rect"><rect fill="rgb(205,122,94)" stroke="rgba(205, 122, 94, 0.49)" x="40.37359699671424" y="121.48389546875" width="186.69288819285077" height="27.597677812500002" style="fill-opacity: 0.3773; stroke-width: 0px;"/></g><g class="symmetric-rect"><rect fill="rgb(205,122,94)" stroke="rgba(205, 122, 94, 0.49)" x="49.50105373799644" y="175.59698921875" width="159.92648130737305" height="27.597677812500002" style="fill-opacity: 0.3773; stroke-width: 0px;"/></g><g class="symmetric-rect"><rect fill="rgb(121,47,35)" stroke="rgba(121, 47, 35, 0.58)" x="244.0334753282674" y="13.257707968750001" width="153.26287791956585" height="27.597677812500002" style="fill-opacity: 0.4466; stroke-width: 0px;"/></g><g class="symmetric-rect"><rect fill="rgb(121,47,35)" stroke="rgba(121, 47, 35, 0.58)" x="238.60179861719766" y="67.37080171875" width="159.08653130050658" height="27.597677812500002" style="fill-opacity: 0.4466; stroke-width: 0px;"/></g><g class="symmetric-rect"><rect fill="rgb(121,47,35)" stroke="rgba(121, 47, 35, 0.58)" x="227.06648518956501" y="121.48389546875" width="168.77395471303305" height="27.597677812500002" style="fill-opacity: 0.4466; stroke-width: 0px;"/></g><g class="symmetric-rect"><rect fill="rgb(121,47,35)" stroke="rgba(121, 47, 35, 0.58)" x="209.42753504536947" y="175.59698921875" width="181.03722481328327" height="27.597677812500002" style="fill-opacity: 0.4466; stroke-width: 0px;"/></g><g class="symmetric-rect"><rect fill="rgb(69,46,24)" stroke="rgba(69, 46, 24, 0.58)" x="397.2963532478333" y="13.257707968750001" width="101.35396749521892" height="27.597677812500002" style="fill-opacity: 0.4466; stroke-width: 0px;"/></g><g class="symmetric-rect"><rect fill="rgb(69,46,24)" stroke="rgba(69, 46, 24, 0.58)" x="397.68832991770427" y="67.37080171875" width="100.5700141554769" height="27.597677812500002" style="fill-opacity: 0.4466; stroke-width: 0px;"/></g><g class="symmetric-rect"><rect fill="rgb(69,46,24)" stroke="rgba(69, 46, 24, 0.58)" x="395.84043990259806" y="121.48389546875" width="104.2657941856893" height="27.597677812500002" style="fill-opacity: 0.4466; stroke-width: 0px;"/></g><g class="symmetric-rect"><rect fill="rgb(69,46,24)" stroke="rgba(69, 46, 24, 0.58)" x="390.4647598586528" y="175.59698921875" width="114.96115760645549" height="27.597677812500002" style="fill-opacity: 0.4466; stroke-width: 0px;"/></g><g class="symmetric-rect"><rect fill="rgb(69,30,24)" stroke="rgba(69, 30, 24, 0.78)" x="498.6503207430522" y="13.257707968750001" width="58.74050381352743" height="27.597677812500002" style="fill-opacity: 0.6006; stroke-width: 0px;"/></g><g class="symmetric-rect"><rect fill="rgb(69,30,24)" stroke="rgba(69, 30, 24, 0.78)" x="498.2583440731812" y="67.37080171875" width="60.30841049301147" height="27.597677812500002" style="fill-opacity: 0.6006; stroke-width: 0px;"/></g><g class="symmetric-rect"><rect fill="rgb(69,30,24)" stroke="rgba(69, 30, 24, 0.78)" x="500.10623408828735" y="121.48389546875" width="63.948193856099444" height="27.597677812500002" style="fill-opacity: 0.6006; stroke-width: 0px;"/></g><g class="symmetric-rect"><rect fill="rgb(69,30,24)" stroke="rgba(69, 30, 24, 0.78)" x="505.42591746510834" y="175.59698921875" width="64.56415719446818" height="27.597677812500002" style="fill-opacity: 0.6006; stroke-width: 0px;"/></g><g class="symmetric-rect"><rect fill="rgb(162,130,95)" stroke="rgba(162, 130, 95, 0.74)" x="557.3908245565796" y="13.257707968750001" width="30.854163585561118" height="27.597677812500002" style="fill-opacity: 0.5698; stroke-width: 0px;"/></g><g class="symmetric-rect"><rect fill="rgb(162,130,95)" stroke="rgba(162, 130, 95, 0.74)" x="558.5667545661927" y="67.37080171875" width="35.66987695826213" height="27.597677812500002" style="fill-opacity: 0.5698; stroke-width: 0px; cursor: pointer;"/></g><g class="symmetric-rect"><rect fill="rgb(162,130,95)" stroke="rgba(162, 130, 95, 0.74)" x="564.0544279443868" y="121.48389546875" width="36.229843629506426" height="27.597677812500002" style="fill-opacity: 0.5698; stroke-width: 0px;"/></g><g class="symmetric-rect"><rect fill="rgb(162,130,95)" stroke="rgba(162, 130, 95, 0.74)" x="569.9900746595764" y="175.59698921875" width="39.477650322723385" height="27.597677812500002" style="fill-opacity: 0.5698; stroke-width: 0px;"/></g><g class="symmetric-bg-texts"><g/><g/><g/><g/><g/><g/><g/><g/><g/><g/><g/><g/><g/><g/><g/><g/><g/><g/><g/><g/></g><g class="symmetric-texts"><g><text class="symmetric-text" fill="#333333" font-family="OPPOSans-M" x="136.1838944466146" y="32.241732060185186" dx="0" dy="0" text-anchor="middle" style="font-size: 14px; display: none; opacity: 1; visibility: visible;">14852</text></g><g><text class="symmetric-text" fill="#333333" font-family="OPPOSans-M" x="136.4638777822367" y="86.35482581018519" dx="0" dy="0" text-anchor="middle" style="font-size: 14px; display: none; opacity: 1; visibility: visible;">20729</text></g><g><text class="symmetric-text" fill="#333333" font-family="OPPOSans-M" x="133.72004109313963" y="140.46791956018518" dx="0" dy="0" text-anchor="middle" style="font-size: 14px; display: none; opacity: 1; visibility: visible;">22798</text></g><g><text class="symmetric-text" fill="#333333" font-family="OPPOSans-M" x="129.46429439168298" y="194.5810133101852" dx="0" dy="0" text-anchor="middle" style="font-size: 14px; display: none; opacity: 1; visibility: visible;">16527</text></g><g><text class="symmetric-text" fill="#333333" font-family="OPPOSans-M" x="320.66491428805034" y="32.241732060185186" dx="0" dy="0" text-anchor="middle" style="font-size: 14px; display: none; opacity: 1; visibility: visible;">10553</text></g><g><text class="symmetric-text" fill="#333333" font-family="OPPOSans-M" x="318.14506426745095" y="86.35482581018519" dx="0" dy="0" text-anchor="middle" style="font-size: 14px; display: none; opacity: 1; visibility: visible;">16142</text></g><g><text class="symmetric-text" fill="#333333" font-family="OPPOSans-M" x="311.45346254608154" y="140.46791956018518" dx="0" dy="0" text-anchor="middle" style="font-size: 14px; display: none; opacity: 1; visibility: visible;">20613</text></g><g><text class="symmetric-text" fill="#333333" font-family="OPPOSans-M" x="299.94614745201113" y="194.5810133101852" dx="0" dy="0" text-anchor="middle" style="font-size: 14px; display: none; opacity: 1; visibility: visible;">18711</text></g><g><text class="symmetric-text" fill="#333333" font-family="OPPOSans-M" x="447.97333699544276" y="32.241732060185186" dx="0" dy="0" text-anchor="middle" style="font-size: 14px; display: none; opacity: 1; visibility: visible;">6977</text></g><g><text class="symmetric-text" fill="#333333" font-family="OPPOSans-M" x="447.9733369954427" y="86.35482581018519" dx="0" dy="0" text-anchor="middle" style="font-size: 14px; display: none; opacity: 1; visibility: visible;">10202</text></g><g><text class="symmetric-text" fill="#333333" font-family="OPPOSans-M" x="447.9733369954427" y="140.46791956018518" dx="0" dy="0" text-anchor="middle" style="font-size: 14px; display: none; opacity: 1; visibility: visible;">12732</text></g><g><text class="symmetric-text" fill="#333333" font-family="OPPOSans-M" x="447.94533866188056" y="194.5810133101852" dx="0" dy="0" text-anchor="middle" style="font-size: 14px; display: none; opacity: 1; visibility: visible;">11879</text></g><g><text class="symmetric-text" fill="#333333" font-family="OPPOSans-M" x="528.0205726498159" y="32.241732060185186" dx="0" dy="0" text-anchor="middle" style="font-size: 14px; display: none; opacity: 1; visibility: visible;">4045</text></g><g><text class="symmetric-text" fill="#333333" font-family="OPPOSans-M" x="528.412549319687" y="86.35482581018519" dx="0" dy="0" text-anchor="middle" style="font-size: 14px; display: none; opacity: 1; visibility: visible;">6122</text></g><g><text class="symmetric-text" fill="#333333" font-family="OPPOSans-M" x="532.080331016337" y="140.46791956018518" dx="0" dy="0" text-anchor="middle" style="font-size: 14px; display: none; opacity: 1; visibility: visible;">7810</text></g><g><text class="symmetric-text" fill="#333333" font-family="OPPOSans-M" x="537.7079960623424" y="194.5810133101852" dx="0" dy="0" text-anchor="middle" style="font-size: 14px; display: none; opacity: 1; visibility: visible;">6672</text></g><g><text class="symmetric-text" fill="#333333" font-family="OPPOSans-M" x="572.8179063493601" y="32.241732060185186" dx="0" dy="0" text-anchor="middle" style="font-size: 14px; display: none; opacity: 1; visibility: visible;">2126</text></g><g><text class="symmetric-text" fill="#333333" font-family="OPPOSans-M" x="576.4016930453238" y="86.35482581018519" dx="0" dy="0" text-anchor="middle" style="font-size: 14px; display: none; opacity: 1; visibility: visible;">3622</text></g><g><text class="symmetric-text" fill="#333333" font-family="OPPOSans-M" x="582.16934975914" y="140.46791956018518" dx="0" dy="0" text-anchor="middle" style="font-size: 14px; display: none; opacity: 1; visibility: visible;">4427</text></g><g><text class="symmetric-text" fill="#333333" font-family="OPPOSans-M" x="589.7288998209381" y="194.5810133101852" dx="0" dy="0" text-anchor="middle" style="font-size: 14px; display: none; opacity: 1; visibility: visible;">4082</text></g></g></g></g><line class="symmetric-line" x1="447.9734369954427" y1="0" x2="447.9733369954427" y2="216.45237500000002" stroke-width="0" stroke="#bfbfbf" style="opacity: 1;"/></g><defs class="animation-defs"><clipPath id="animation-overlay-tejntc1i15fjp4v"><rect width="800" height="300"/></clipPath></defs></g><g class="unit-group"><text transform="translate(0,0)" style="display: none;"/></g><g class="source-group"><text transform="translate(0,255.74)" style="display: none;"/></g><g class="publish-logo-group" transform="translate(0,255.74)" style="display: none;"/><g class="legend preview-hidden" transform="translate(0,4.4)" style="display: block;"><g transform="translate(166.57893432617186,0)"><g class="legend-group"><g class="legend-item" transform="translate(0,0)" style="opacity: 1;"><rect width="12" height="12" class="legend-shape" fill="rgba(205, 122, 94, 0.49)"/><text x="18" y="11.6" fill="#333333" style="text-anchor: start; font-size: 16px; font-family: &quot;思源黑体 细体&quot;;">60～64</text></g><g class="legend-item" transform="translate(89.13600158691406,0)" style="opacity: 1;"><rect width="12" height="12" class="legend-shape" fill="rgba(121, 47, 35, 0.58)"/><text x="18" y="11.6" fill="#333333" style="text-anchor: start; font-size: 16px; font-family: &quot;思源黑体 细体&quot;;">65～69</text></g><g class="legend-item" transform="translate(178.27200317382812,0)" style="opacity: 1;"><rect width="12" height="12" class="legend-shape" fill="rgba(69, 46, 24, 0.58)"/><text x="18" y="11.6" fill="#333333" style="text-anchor: start; font-size: 16px; font-family: &quot;思源黑体 细体&quot;;">70～74</text></g><g class="legend-item" transform="translate(267.4080047607422,0)" style="opacity: 1;"><rect width="12" height="12" class="legend-shape" fill="rgba(69, 30, 24, 0.78)"/><text x="18" y="11.6" fill="#333333" style="text-anchor: start; font-size: 16px; font-family: &quot;思源黑体 细体&quot;;">75～79</text></g><g class="legend-item" transform="translate(356.54400634765625,0)" style="opacity: 1;"><rect width="12" height="12" class="legend-shape" fill="rgba(162, 130, 95, 0.74)"/><text x="18" y="11.6" fill="#333333" style="text-anchor: start; font-size: 16px; font-family: &quot;思源黑体 细体&quot;;">80以上</text></g></g></g></g></g></svg>