<?xml version="1.0" standalone="no"?>
<svg xmlns="http://www.w3.org/2000/svg" xmlns:xlink="http://www.w3.org/1999/xlink" version="1.1" class="butterfly-bar-chart" width="1000" height="510" style=" font-size: 20px; font-family: 阿里巴巴普惠体 常规; letter-spacing: 0px; user-select: none;"><defs><filter x="-10%" y="-10%" width="180%" height="180%" id="Drop_Shadow_groupBar" filterUnits="objectBoundingBox"><feGaussianBlur in="SourceAlpha" stdDeviation="0" result="blurredAlpha"/><feOffset in="blurredAlpha" dx="0.5" dy="0.7" result="offsetBlurredAlpha"/><feFlood result="flooded" style="flood-color: rgb(255, 255, 255); flood-opacity: 0.5;"/><feComposite in="flooded" in2="offsetBlurredAlpha" operator="in" result="coloredShadow"/><feComposite in="SourceGraphic" in2="coloredShadow" operator="over"/></filter></defs><g class="svg-group" opacity="1" transform="translate(26.700000000000003,24.463)"><g class="main-group" transform="translate(0,0)"><g class="core-group"><g class="butterfly-grid preview-hidden" transform="translate(0,0)"><g class="" fill="none" stroke="#e9e9e9" style="stroke-width: 1px; stroke-dasharray: none; pointer-events: none;"/></g><g class="butterfly-bar"><g style="transform: scale(1);"><g class="butterfly-bar-rects-left" clip-path="url(#clip-overlay-left-4n9ipg1i5iie572)"><path fill="rgb(178,59,45)" style="fill-opacity: 0.75; stroke-width: 0px; display: block;" stroke="rgba(178, 59, 45, 1.00)" d="&#xA;    M227.85075257970954 355.5702793591309&#xA;    A2 2 0 0 1 229.85075257970954 353.5702793591309&#xA;    H366.8604141235351&#xA;    A2 2 0 0 1 368.8604141235351 355.5702793591309&#xA;    V402.08031926757815&#xA;    A2 2 0 0 1 366.8604141235351 404.08031926757815&#xA;    H229.85075257970954&#xA;    A2 2 0 0 1 227.85075257970954 402.08031926757815&#xA;    Z&#xA;  "/><path fill="rgb(178,59,45)" style="fill-opacity: 0.75; stroke-width: 0px; display: block;" stroke="rgba(178, 59, 45, 1.00)" d="&#xA;    M325.56471366883494 271.38687951171875&#xA;    A2 2 0 0 1 327.56471366883494 269.38687951171875&#xA;    H366.8604141235351&#xA;    A2 2 0 0 1 368.8604141235351 271.38687951171875&#xA;    V317.896919420166&#xA;    A2 2 0 0 1 366.8604141235351 319.896919420166&#xA;    H327.56471366883494&#xA;    A2 2 0 0 1 325.56471366883494 317.896919420166&#xA;    Z&#xA;  "/><path fill="rgb(178,59,45)" style="fill-opacity: 0.75; stroke-width: 0px; display: block;" stroke="rgba(178, 59, 45, 1.00)" d="&#xA;    M358.3053315040001 187.20347966430663&#xA;    A2 2 0 0 1 360.3053315040001 185.20347966430663&#xA;    H366.8604141235351&#xA;    A2 2 0 0 1 368.8604141235351 187.20347966430663&#xA;    V233.7135195727539&#xA;    A2 2 0 0 1 366.8604141235351 235.7135195727539&#xA;    H360.3053315040001&#xA;    A2 2 0 0 1 358.3053315040001 233.7135195727539&#xA;    Z&#xA;  "/><path fill="rgb(178,59,45)" style="fill-opacity: 0.75; stroke-width: 0px; display: block;" d="&#xA;    M368.8604141235351 101.02007981689451&#xA;    A0 0 0 0 1 368.8604141235351 101.02007981689451&#xA;    H368.8604141235351&#xA;    A0 0 0 0 1 368.8604141235351 101.02007981689451&#xA;    V151.53011972534176&#xA;    A0 0 0 0 1 368.8604141235351 151.53011972534176&#xA;    H368.8604141235351&#xA;    A0 0 0 0 1 368.8604141235351 151.53011972534176&#xA;    Z&#xA;  "/><path fill="rgb(178,59,45)" style="fill-opacity: 0.75; stroke-width: 0px; display: block;" stroke="rgba(178, 59, 45, 1.00)" d="&#xA;    M366.5961786583768 18.836679969482397&#xA;    A2 2 0 0 1 368.5961786583768 16.836679969482397&#xA;    H366.8604141235351&#xA;    A2 2 0 0 1 368.8604141235351 18.836679969482397&#xA;    V65.34671987792967&#xA;    A2 2 0 0 1 366.8604141235351 67.34671987792967&#xA;    H368.5961786583768&#xA;    A2 2 0 0 1 366.5961786583768 65.34671987792967&#xA;    Z&#xA;  "/></g><g class="butterfly-bar-rects-right" clip-path="url(#clip-overlay-right-4n9ipg1i5iie572)"><path fill="rgb(128,94,70)" style="fill-opacity: 0.75; stroke-width: 0px; display: block;" stroke="rgba(128, 94, 70, 1.00)" d="&#xA;    M577.7395858764648 355.5702793591309&#xA;    A2 2 0 0 1 579.7395858764648 353.5702793591309&#xA;    H588.1701818324279&#xA;    A2 2 0 0 1 590.1701818324279 355.5702793591309&#xA;    V402.08031926757815&#xA;    A2 2 0 0 1 588.1701818324279 404.08031926757815&#xA;    H579.7395858764648&#xA;    A2 2 0 0 1 577.7395858764648 402.08031926757815&#xA;    Z&#xA;  "/><path fill="rgb(128,94,70)" style="fill-opacity: 0.75; stroke-width: 0px; display: block;" stroke="rgba(128, 94, 70, 1.00)" d="&#xA;    M577.7395858764648 271.38687951171875&#xA;    A2 2 0 0 1 579.7395858764648 269.38687951171875&#xA;    H859.7280560979755&#xA;    A2 2 0 0 1 861.7280560979755 271.38687951171875&#xA;    V317.896919420166&#xA;    A2 2 0 0 1 859.7280560979755 319.896919420166&#xA;    H579.7395858764648&#xA;    A2 2 0 0 1 577.7395858764648 317.896919420166&#xA;    Z&#xA;  "/><path fill="rgb(128,94,70)" style="fill-opacity: 0.75; stroke-width: 0px; display: block;" stroke="rgba(128, 94, 70, 1.00)" d="&#xA;    M577.7395858764648 187.20347966430663&#xA;    A2 2 0 0 1 579.7395858764648 185.20347966430663&#xA;    H735.4220965383441&#xA;    A2 2 0 0 1 737.4220965383441 187.20347966430663&#xA;    V233.7135195727539&#xA;    A2 2 0 0 1 735.4220965383441 235.7135195727539&#xA;    H579.7395858764648&#xA;    A2 2 0 0 1 577.7395858764648 233.7135195727539&#xA;    Z&#xA;  "/><path fill="rgb(128,94,70)" style="fill-opacity: 0.75; stroke-width: 0px; display: block;" stroke="rgba(128, 94, 70, 1.00)" d="&#xA;    M577.7395858764648 103.02007981689451&#xA;    A2 2 0 0 1 579.7395858764648 101.02007981689451&#xA;    H600.6546881566092&#xA;    A2 2 0 0 1 602.6546881566092 103.02007981689451&#xA;    V149.53011972534176&#xA;    A2 2 0 0 1 600.6546881566092 151.53011972534176&#xA;    H579.7395858764648&#xA;    A2 2 0 0 1 577.7395858764648 149.53011972534176&#xA;    Z&#xA;  "/><path fill="rgb(128,94,70)" style="fill-opacity: 0.75; stroke-width: 0px; display: block;" stroke="rgba(128, 94, 70, 1.00)" d="&#xA;    M577.7395858764648 18.836679969482397&#xA;    A2 2 0 0 1 579.7395858764648 16.836679969482397&#xA;    H582.5379670475417&#xA;    A2 2 0 0 1 584.5379670475417 18.836679969482397&#xA;    V65.34671987792967&#xA;    A2 2 0 0 1 582.5379670475417 67.34671987792967&#xA;    H579.7395858764648&#xA;    A2 2 0 0 1 577.7395858764648 65.34671987792967&#xA;    Z&#xA;  "/></g><g class="butterfly-bg-label-left"/><g class="butterfly-bg-label-right"/><g class="butterfly-bar-label-left" clip-path="url(#clip-overlay-left-4n9ipg1i5iie572)"><text class="butterfly-bar-labels" x="217.14075257970953" y="385.82529931335455" fill="#333333" style="font-family: 思源黑体 细体; pointer-events: none; display: none; opacity: 1; visibility: hidden;" text-anchor="end" dy="0">49697</text><text class="butterfly-bar-labels" x="314.85471366883496" y="301.6418994659424" fill="#333333" style="font-family: 思源黑体 细体; pointer-events: none; display: none; opacity: 1; visibility: hidden;" text-anchor="end" dy="0">15259</text><text class="butterfly-bar-labels" x="347.5953315040001" y="217.45849961853025" fill="#333333" style="font-family: 思源黑体 细体; pointer-events: none; display: none; opacity: 1; visibility: hidden;" text-anchor="end" dy="0">3720</text><text class="butterfly-bar-labels" x="358.15041412353514" y="133.27509977111816" fill="#333333" style="font-family: 思源黑体 细体; pointer-events: none; display: none; opacity: 1; visibility: hidden;" text-anchor="end" dy="0">0</text><text class="butterfly-bar-labels" x="355.8861786583768" y="49.09169992370603" fill="#333333" style="font-family: 思源黑体 细体; pointer-events: none; display: none; opacity: 1; visibility: hidden;" text-anchor="end" dy="0">798</text></g><g class="butterfly-bar-label-right" clip-path="url(#clip-overlay-right-4n9ipg1i5iie572)"><text class="butterfly-bar-labels" x="600.880181832428" y="385.82529931335455" style="pointer-events: none; font-family: 思源黑体 细体; display: none; opacity: 1; visibility: hidden;" text-anchor="start" dy="0" fill="#333333">4381</text><text class="butterfly-bar-labels" x="872.4380560979755" y="301.6418994659424" style="pointer-events: none; font-family: 思源黑体 细体; display: none; opacity: 1; visibility: hidden;" text-anchor="start" dy="0" fill="#333333">100088</text><text class="butterfly-bar-labels" x="748.1320965383442" y="217.45849961853025" style="pointer-events: none; font-family: 思源黑体 细体; display: none; opacity: 1; visibility: hidden;" text-anchor="start" dy="0" fill="#333333">56278</text><text class="butterfly-bar-labels" x="613.3646881566092" y="133.27509977111816" style="pointer-events: none; font-family: 思源黑体 细体; display: none; opacity: 1; visibility: hidden;" text-anchor="start" dy="0" fill="#333333">8781</text><text class="butterfly-bar-labels" x="595.2479670475417" y="49.09169992370603" style="pointer-events: none; font-family: 思源黑体 细体; display: none; opacity: 1; visibility: visible;" text-anchor="start" dy="0" fill="#333333">2396</text></g></g></g></g><rect class="selectOverlay-rect" style="display: none; opacity: 0.15;" x="0" y="0" width="946.5999999999999" height="84.18339984741212" fill="#ccc" transform="translate(0, 84.18340301513672)"/><g class="bands-overlay" style="opacity: 0;" transform="translate(0,0)"><rect class="band-0" x="0" y="0" width="946.5999999999999" height="84.18339984741212" fill="#000" style="opacity: 0;"/><rect class="band-1" x="0" y="84.18339984741212" width="946.5999999999999" height="84.18339984741212" fill="#000" style="opacity: 0;"/><rect class="band-2" x="0" y="168.36679969482424" width="946.5999999999999" height="84.18339984741212" fill="#000" style="opacity: 0;"/><rect class="band-3" x="0" y="252.55019954223636" width="946.5999999999999" height="84.18339984741212" fill="#000" style="opacity: 0;"/><rect class="band-4" x="0" y="336.7335993896485" width="946.5999999999999" height="84.18339984741212" fill="#000" style="opacity: 0;"/></g><g class="axis-x-butterfly-line preview-hidden" transform="translate(0,420.91699923706057)"><g><g class="axis-group" style="font-size: 20px; font-family: 阿里巴巴普惠体 常规;" fill="none" font-size="10" font-family="sans-serif" text-anchor="middle"><path class="domain" stroke="#4D4D4D" style="stroke-width: 1px; display: none;" d="M369.3604141235351,0.5V0.5H0.5V0.5"/><g class="tick" opacity="1" transform="translate(369.3604141235351,0)"><line stroke="#4D4D4D" y2="5" style="stroke-width: 1px; display: none;"/><g transform="translate(0,28)"/><g transform="translate(0,28)"><text style="text-anchor: middle; display: none; font-size: 20px; font-family: 阿里巴巴普惠体 常规;" opacity="1" fill="#545454" transform="translate(0,0) rotate(0)">0</text></g></g><g class="tick" opacity="1" transform="translate(312.6126581045297,0)"><line stroke="#4D4D4D" y2="5" style="stroke-width: 1px; display: none;"/><g transform="translate(0,28)"/><g transform="translate(0,28)"><text style="text-anchor: middle; display: none; font-size: 20px; font-family: 阿里巴巴普惠体 常规;" opacity="1" fill="#545454" transform="translate(0,0) rotate(0)">20000</text></g></g><g class="tick" opacity="1" transform="translate(255.8649020855243,0)"><line stroke="#4D4D4D" y2="5" style="stroke-width: 1px; display: none;"/><g transform="translate(0,28)"/><g transform="translate(0,28)"><text style="text-anchor: middle; display: none; font-size: 20px; font-family: 阿里巴巴普惠体 常规;" opacity="1" fill="#545454" transform="translate(0,0) rotate(0)">40000</text></g></g><g class="tick" opacity="1" transform="translate(199.1171460665189,0)"><line stroke="#4D4D4D" y2="5" style="stroke-width: 1px; display: none;"/><g transform="translate(0,28)"/><g transform="translate(0,28)"><text style="text-anchor: middle; display: none; font-size: 20px; font-family: 阿里巴巴普惠体 常规;" opacity="1" fill="#545454" transform="translate(0,0) rotate(0)">60000</text></g></g><g class="tick" opacity="1" transform="translate(142.3693900475135,0)"><line stroke="#4D4D4D" y2="5" style="stroke-width: 1px; display: none;"/><g transform="translate(0,28)"/><g transform="translate(0,28)"><text style="text-anchor: middle; display: none; font-size: 20px; font-family: 阿里巴巴普惠体 常规;" opacity="1" fill="#545454" transform="translate(0,0) rotate(0)">80000</text></g></g><g class="tick" opacity="1" transform="translate(85.62163402850808,0)"><line stroke="#4D4D4D" y2="5" style="stroke-width: 1px; display: none;"/><g transform="translate(0,28)"/><g transform="translate(0,28)"><text style="text-anchor: middle; display: none; font-size: 20px; font-family: 阿里巴巴普惠体 常规;" opacity="1" fill="#545454" transform="translate(0,0) rotate(0)">100000</text></g></g><g class="tick" opacity="1" transform="translate(28.873878009502675,0)"><line stroke="#4D4D4D" y2="5" style="stroke-width: 1px; display: none;"/><g transform="translate(0,28)"/><g transform="translate(0,28)"><text style="text-anchor: middle; display: none; font-size: 20px; font-family: 阿里巴巴普惠体 常规;" opacity="1" fill="#545454" transform="translate(0,0) rotate(0)">120000</text></g></g><g class="tick" opacity="1" transform="translate(0.5,0)"><line stroke="#4D4D4D" y2="5" style="stroke-width: 1px; display: none;"/><g transform="translate(0,28)"/><g transform="translate(0,28)"><text style="text-anchor: middle; display: none; font-size: 20px; font-family: 阿里巴巴普惠体 常规;" opacity="1" fill="#545454" transform="translate(0,0) rotate(0)">130000</text></g></g></g></g></g><g class="axis-x-butterfly-line preview-hidden" transform="translate(0,420.91699923706057)"><g><g class="axis-group" style="font-size: 20px; font-family: 阿里巴巴普惠体 常规;" fill="none" font-size="10" font-family="sans-serif" text-anchor="middle"><path class="domain" stroke="#4D4D4D" style="stroke-width: 1px; display: none;" d="M578.2395858764648,0.5V0.5H947.0999999999999V0.5"/><g class="tick" opacity="1" transform="translate(578.2395858764648,0)"><line stroke="#4D4D4D" y2="5" style="stroke-width: 1px; display: none;"/><g transform="translate(0,28)"/><g transform="translate(0,28)"><text style="text-anchor: middle; display: none; font-size: 20px; font-family: 阿里巴巴普惠体 常规;" opacity="1" fill="#545454" transform="translate(0,0) rotate(0)">0</text></g></g><g class="tick" opacity="1" transform="translate(634.9873418954702,0)"><line stroke="#4D4D4D" y2="5" style="stroke-width: 1px; display: none;"/><g transform="translate(0,28)"/><g transform="translate(0,28)"><text style="text-anchor: middle; display: none; font-size: 20px; font-family: 阿里巴巴普惠体 常规;" opacity="1" fill="#545454" transform="translate(0,0) rotate(0)">20000</text></g></g><g class="tick" opacity="1" transform="translate(691.7350979144757,0)"><line stroke="#4D4D4D" y2="5" style="stroke-width: 1px; display: none;"/><g transform="translate(0,28)"/><g transform="translate(0,28)"><text style="text-anchor: middle; display: none; font-size: 20px; font-family: 阿里巴巴普惠体 常规;" opacity="1" fill="#545454" transform="translate(0,0) rotate(0)">40000</text></g></g><g class="tick" opacity="1" transform="translate(748.482853933481,0)"><line stroke="#4D4D4D" y2="5" style="stroke-width: 1px; display: none;"/><g transform="translate(0,28)"/><g transform="translate(0,28)"><text style="text-anchor: middle; display: none; font-size: 20px; font-family: 阿里巴巴普惠体 常规;" opacity="1" fill="#545454" transform="translate(0,0) rotate(0)">60000</text></g></g><g class="tick" opacity="1" transform="translate(805.2306099524865,0)"><line stroke="#4D4D4D" y2="5" style="stroke-width: 1px; display: none;"/><g transform="translate(0,28)"/><g transform="translate(0,28)"><text style="text-anchor: middle; display: none; font-size: 20px; font-family: 阿里巴巴普惠体 常规;" opacity="1" fill="#545454" transform="translate(0,0) rotate(0)">80000</text></g></g><g class="tick" opacity="1" transform="translate(861.9783659714918,0)"><line stroke="#4D4D4D" y2="5" style="stroke-width: 1px; display: none;"/><g transform="translate(0,28)"/><g transform="translate(0,28)"><text style="text-anchor: middle; display: none; font-size: 20px; font-family: 阿里巴巴普惠体 常规;" opacity="1" fill="#545454" transform="translate(0,0) rotate(0)">100000</text></g></g><g class="tick" opacity="1" transform="translate(918.7261219904972,0)"><line stroke="#4D4D4D" y2="5" style="stroke-width: 1px; display: none;"/><g transform="translate(0,28)"/><g transform="translate(0,28)"><text style="text-anchor: middle; display: none; font-size: 20px; font-family: 阿里巴巴普惠体 常规;" opacity="1" fill="#545454" transform="translate(0,0) rotate(0)">120000</text></g></g><g class="tick" opacity="1" transform="translate(947.0999999999999,0)"><line stroke="#4D4D4D" y2="5" style="stroke-width: 1px; display: none;"/><g transform="translate(0,28)"/><g transform="translate(0,28)"><text style="text-anchor: middle; display: none; font-size: 20px; font-family: 阿里巴巴普惠体 常规;" opacity="1" fill="#545454" transform="translate(0,0) rotate(0)">130000</text></g></g></g></g></g><g class="axis-y-line preview-hidden" transform="translate(368.8604141235351,0)"><g><g class="axis-group" fill="none" font-size="10" font-family="sans-serif" text-anchor="start"><path class="domain" stroke="#4D4D4D" style="stroke-width: 1px; display: block;" d="M0,421.41699923706057H0.5V0.5H0"/><g class="tick" opacity="1" transform="translate(0,378.82529931335455)"><line stroke="#4D4D4D" x2="5" style="stroke-width: 1px; display: block;"/><text style="font-size: 20px; font-family: 阿里巴巴普惠体 常规; display: none;" fill="#545454" x="-9.7" y="8"/></g><g class="tick" opacity="1" transform="translate(0,294.6418994659424)"><line stroke="#4D4D4D" x2="5" style="stroke-width: 1px; display: block;"/><text style="font-size: 20px; font-family: 阿里巴巴普惠体 常规; display: none;" fill="#545454" x="-9.7" y="8"/></g><g class="tick" opacity="1" transform="translate(0,210.45849961853025)"><line stroke="#4D4D4D" x2="5" style="stroke-width: 1px; display: block;"/><text style="font-size: 20px; font-family: 阿里巴巴普惠体 常规; display: none;" fill="#545454" x="-9.7" y="8"/></g><g class="tick" opacity="1" transform="translate(0,126.27509977111815)"><line stroke="#4D4D4D" x2="5" style="stroke-width: 1px; display: block;"/><text style="font-size: 20px; font-family: 阿里巴巴普惠体 常规; display: none;" fill="#545454" x="-9.7" y="8"/></g><g class="tick" opacity="1" transform="translate(0,42.09169992370603)"><line stroke="#4D4D4D" x2="5" style="stroke-width: 1px; display: block;"/><text style="font-size: 20px; font-family: 阿里巴巴普惠体 常规; display: none;" fill="#545454" x="-9.7" y="8"/></g></g></g></g><g class="axis-y-line preview-hidden" transform="translate(577.7395858764648,0)"><g><g class="axis-group" fill="none" font-size="10" font-family="sans-serif" text-anchor="end"><path class="domain" stroke="#4D4D4D" style="stroke-width: 1px; display: block;" d="M0,421.41699923706057H0.5V0.5H0"/><g class="tick" opacity="1" transform="translate(0,378.82529931335455)"><line stroke="#4D4D4D" x2="-5" style="stroke-width: 1px; display: block;"/><text style="font-size: 20px; font-family: 阿里巴巴普惠体 常规; display: none;" fill="#545454" x="-9.7" y="8">异性固定性伴侣传播</text></g><g class="tick" opacity="1" transform="translate(0,294.6418994659424)"><line stroke="#4D4D4D" x2="-5" style="stroke-width: 1px; display: block;"/><text style="font-size: 20px; font-family: 阿里巴巴普惠体 常规; display: none;" fill="#545454" x="-9.7" y="8">异性商业性行为传播</text></g><g class="tick" opacity="1" transform="translate(0,210.45849961853025)"><line stroke="#4D4D4D" x2="-5" style="stroke-width: 1px; display: block;"/><text style="font-size: 20px; font-family: 阿里巴巴普惠体 常规; display: none;" fill="#545454" x="-9.7" y="8">异性其他性行为传播</text></g><g class="tick" opacity="1" transform="translate(0,126.27509977111815)"><line stroke="#4D4D4D" x2="-5" style="stroke-width: 1px; display: block;"/><text style="font-size: 20px; font-family: 阿里巴巴普惠体 常规; display: none;" fill="#545454" x="-9.7" y="8">同性性传播</text></g><g class="tick" opacity="1" transform="translate(0,42.09169992370603)"><line stroke="#4D4D4D" x2="-5" style="stroke-width: 1px; display: block;"/><text style="font-size: 20px; font-family: 阿里巴巴普惠体 常规; display: none;" fill="#545454" x="-9.7" y="8">其他</text></g></g></g></g><defs/><g class="butterfly-bar-textLabel"><text x="473.29999999999995" y="385.82529931335455" fill="#545454" style="font-family: 阿里巴巴普惠体 常规; pointer-events: none; display: block;" text-anchor="middle" dy="0">异性固定性伴侣传播</text><text x="473.29999999999995" y="301.6418994659424" fill="#545454" style="font-family: 阿里巴巴普惠体 常规; pointer-events: none; display: block;" text-anchor="middle" dy="0">异性商业性行为传播</text><text x="473.29999999999995" y="217.45849961853025" fill="#545454" style="font-family: 阿里巴巴普惠体 常规; pointer-events: none; display: block;" text-anchor="middle" dy="0">异性其他性行为传播</text><text x="473.29999999999995" y="133.27509977111816" fill="#545454" style="font-family: 阿里巴巴普惠体 常规; pointer-events: none; display: block;" text-anchor="middle" dy="0">同性性传播</text><text x="473.29999999999995" y="49.09169992370603" fill="#545454" style="font-family: 阿里巴巴普惠体 常规; pointer-events: none; display: block;" text-anchor="middle" dy="0">其他</text></g><defs><clipPath class="clip-defs" id="clip-overlay-left-4n9ipg1i5iie572"><rect x="0" height="428.75699923706054" width="368.8604141235351"/></clipPath><clipPath class="clip-defs" id="clip-overlay-right-4n9ipg1i5iie572"><rect x="577.7395858764648" height="428.75699923706054" width="368.86041412353507"/></clipPath></defs></g><g class="unit-group"><text style="display: none;" transform="translate(0,0)"/></g><g class="source-group"><text style="display: none;" transform="translate(0,470.23699999999997)"/></g><g class="publish-logo-group" style="display: none;" transform="translate(0,470.23699999999997)"/><g class="legend preview-hidden" style="display: block;" transform="translate(0,450.0369992370605)"><g transform="translate(425.614582824707,0)"><g class="legend-group"><g class="legend-item" transform="translate(0,0)" style="opacity: 1;"><circle cx="6" cy="6" r="6" class="legend-shape" fill="rgba(178, 59, 45, 1.00)"/><text x="18" y="13" style="text-anchor: start; font-size: 20px; font-family: 阿里巴巴普惠体 常规;" fill="#545454">女</text></g><g class="legend-item" transform="translate(57.6875,0)" style="opacity: 1;"><circle cx="6" cy="6" r="6" class="legend-shape" fill="rgba(128, 94, 70, 1.00)"/><text x="18" y="13" style="text-anchor: start; font-size: 20px; font-family: 阿里巴巴普惠体 常规;" fill="#545454">男</text></g></g></g></g></g></svg>